<?xml version="1.0" encoding="iso-8859-1"?>
<!-- Generator: Adobe Illustrator 21.0.0, SVG Export Plug-In . SVG Version: 6.00 Build 0)  -->
<svg xmlns="http://www.w3.org/2000/svg" xmlns:xlink="http://www.w3.org/1999/xlink" version="1.1" id="Capa_1" x="0px" y="0px" viewBox="0 0 511.34 511.34" style="enable-background:new 0 0 511.34 511.34;" xml:space="preserve" width="512" height="512">
<g>
	<path style="fill:#FF637B;" d="M262.001,36.003c-0.601-9.6-2.401-19.2-9.3-26.1c-4.799-5.402-11.7-8.101-18.6-9.3   c-12.9-2.1-35.7,1.5-58.5,7.5c-2.1,0.599-4.499,1.199-6.599,1.8c-20.4,5.7-39.901,15.5-51.301,21.799   c-9.6,5.4-17.999,14.399-20.7,25.201c-1.5,7.5-0.3,15,3.9,21.299c11.1,16.8,97.5,157.8,111.599,172.202   c9.001,9.3,21.301,13.499,33.602,10.499c11.999-2.999,20.999-12.599,24.598-24.3C276.4,216.801,265,83.401,262.001,36.003z"/>
	<path style="fill:#E63950;" d="M270.7,236.602c-3.6,11.7-12.599,21.301-24.598,24.3l-77.1-250.999c2.1-0.601,4.499-1.201,6.599-1.8   c22.8-6,45.601-9.6,58.5-7.5c6.899,1.199,13.801,3.898,18.6,9.3c6.899,6.899,8.699,16.5,9.3,26.1   C265,83.401,276.4,216.801,270.7,236.602z"/>
	<path style="fill:#FF637B;" d="M210.102,268.402c-51-21-81.601-33.9-103.801-41.7c-16.658-6.168-36.409,1.941-43.2,29.101   c-6,22.5-7.8,63.6-1.199,90c4.628,18.155,21.374,28.397,37.8,24.3c8.399-1.8,105.599-33.001,108.6-33.9   c15-4.801,24.6-19.501,23.399-36.601C230.802,284.902,223.001,273.802,210.102,268.402z"/>
	<path style="fill:#E63950;" d="M446.502,225.202c-8.701-22.8-29.401-53.101-46.8-69c-15.149-14.104-36.859-17.252-50.101-1.8   c-0.599,0.599-71.4,91.8-73.499,105c-2.1,11.699,2.399,24.3,11.398,32.999c8.401,8.101,20.7,12.001,33.602,9.6   c3.898-0.901,105.298-26.7,106.199-27.001C445.635,270.178,457.001,252.38,446.502,225.202z"/>
	<path style="fill:#E63950;" d="M423.401,346.702l-95.4-31.8c-15.901-5.099-31.8,0.3-41.1,14.7   c-8.401,12.301-8.701,26.4-1.201,38.401c60.3,99.6,63.301,105.3,80.101,107.999c12.042,2.411,22.631-3.952,32.1-11.7   c17.699-15,39.598-42.599,49.799-63.3C460.765,373.632,452.057,356.258,423.401,346.702z"/>
	<path style="fill:#FF637B;" d="M252.701,339.502c-9.936-6.207-30.706-8.45-44.7,7.8c-55.201,65.4-63.9,75.3-72.001,86.4   c-11.327,15.761-9.27,36.35,20.101,52.8c13.799,7.5,29.099,13.799,47.098,19.199c34.689,10.046,67.8,9.669,67.8-26.4   c0.3-32.999,0.901-10.8,0.901-109.799C271.902,356.602,264.402,345.202,252.701,339.502z"/>
</g>















</svg>
