<?xml version="1.0" encoding="iso-8859-1"?>
<!-- Generator: Adobe Illustrator 21.0.0, SVG Export Plug-In . SVG Version: 6.00 Build 0)  -->
<svg xmlns="http://www.w3.org/2000/svg" xmlns:xlink="http://www.w3.org/1999/xlink" version="1.1" id="Capa_1" x="0px" y="0px" viewBox="0 0 512 512" style="enable-background:new 0 0 512 512;" xml:space="preserve" width="512" height="512">
<g>
	<path style="fill:#FF637B;" d="M256.049,0c-0.3,0-0.3,0-0.601,0C103.348,0,9.949,72.299,0.649,198.3c-3.6,51,8.699,91.8,39,128.701   c5.099,6.299,14.399,7.5,21,2.399l58.499-46.5c6-4.799,7.5-13.2,3.301-19.799c-14.101-22.2-20.4-42.301-19.2-60.901   c2.401-47.699,61-97.2,152.8-97.2c99.6,0,151.501,63.3,153,107.999c1.5,36.601-24.499,60.601-68.901,63.9   c-18.6,1.501-39.4-2.399-48.099-10.199c-3.9-3.6-6-7.5-6-12.001V165c0-8.401-6.599-15-15-15h-73c-8.401,0-15,6.899-15,15   l0.3,192.001c-0.3,18.3-3.9,33.5-10.201,39.798c-6,5.7-14.099,5.7-24,5.7h-3.9c-7.8,0-16.199-3.9-28.799-9.598   c-4.2-2.1-9.302-1.802-13.5,0.599c-4.2,2.401-7.2,6.901-7.5,11.7c-1.5,14.7-2.401,41.1-2.401,52.2c0,10.8,0.3,33.3,21.599,42.9   c18.602,8.101,51.301,11.7,69.001,11.7c25.499,0,51.699-7.2,72.399-31.8c17.401-20.7,29.099-55.101,30-106.399V373.2   c14.7,2.999,37.6,6.599,58,5.7c110.099-2.401,168.799-93.3,167.9-177.599C511.048,101.1,428.248,0.3,256.049,0z"/>
	<path style="fill:#E63950;" d="M511.949,201.301c0.899,84.3-57.801,175.199-167.9,177.599c-20.4,0.899-43.3-2.701-58-5.7v0.601   c-0.901,51.299-12.599,85.699-30,106.399V150h15c8.401,0,15,6.599,15,15v89.7c0,4.501,2.1,8.401,6,12.001   c8.699,7.8,29.499,11.7,48.099,10.199c44.401-3.3,70.4-27.299,68.901-63.9c-1.5-44.7-53.4-107.999-153-107.999V0   C428.248,0.3,511.048,101.1,511.949,201.301z"/>
</g>















</svg>
