<?xml version="1.0" encoding="iso-8859-1"?>
<!-- Generator: Adobe Illustrator 21.0.0, SVG Export Plug-In . SVG Version: 6.00 Build 0)  -->
<svg xmlns="http://www.w3.org/2000/svg" xmlns:xlink="http://www.w3.org/1999/xlink" version="1.1" id="Capa_1" x="0px" y="0px" viewBox="0 0 512 512" style="enable-background:new 0 0 512 512;" xml:space="preserve" width="512" height="512">
<g>
	<path style="fill:#FF637B;" d="M361,23.8V190L182.8,11.8C205.901,4.6,230.501,0,256,0C293.5,0,328.9,9.101,361,23.8z"/>
	<path style="fill:#737EE6;" d="M152.199,23.2C63.1,63.1,0,152.199,0,256c0,25.499,4.6,50.099,11.8,73.2L235,106L152.199,23.2z"/>
	<path style="fill:#FFDA2D;" d="M391,39.699V331h108.9c7.2-23.699,12.1-48.9,12.1-75C512,164.801,463.001,85,391,39.699z"/>
	<path style="fill:#7FE881;" d="M488.2,361c-39.901,88.5-129,151-232.2,151c-37.5,0-72.9-9.101-105-23.8V361H488.2z"/>
	<path style="fill:#25D9F8;" d="M121,472.301V262l-97.8,97.8C43.9,406.3,78.1,445.3,121,472.301z"/>
	<path style="fill:#E63950;" d="M361,190L256,85V0c37.5,0,72.9,9.101,105,23.8V190z"/>
	<path style="fill:#5BC980;" d="M488.2,361c-39.901,88.5-129,151-232.2,151V361H488.2z"/>
</g>















</svg>
