<?xml version="1.0" encoding="iso-8859-1"?>
<!-- Generator: Adobe Illustrator 21.0.0, SVG Export Plug-In . SVG Version: 6.00 Build 0)  -->
<svg xmlns="http://www.w3.org/2000/svg" xmlns:xlink="http://www.w3.org/1999/xlink" version="1.1" id="Capa_1" x="0px" y="0px" viewBox="0 0 513.199 513.199" style="enable-background:new 0 0 513.199 513.199;" xml:space="preserve" width="512" height="512">
<g>
	<path style="fill:#EFE2DD;" d="M481.578,45v209.9c0,8.401-6.599,15-15,15s-15-6.599-15-15V45c0-8.401-6.599-15-15-15h-360   c-8.401,0-15,6.599-15,15v209.9c0,8.401-6.599,15-15,15s-15-6.599-15-15V45c0-24.901,20.099-45,45-45h360   C461.479,0,481.578,20.099,481.578,45z"/>
	<path style="fill:#CDBFBA;" d="M481.578,45v209.9c0,8.401-6.599,15-15,15s-15-6.599-15-15V45c0-8.401-6.599-15-15-15h-180V0h180   C461.479,0,481.578,20.099,481.578,45z"/>
	<path style="fill:#25D9F8;" d="M503.218,243.084c-10.913-11.206-28.744-12.437-39.174-4.028   c-43.857,24.727-69.067,30.82-96.665,32.944h-50.801c-24.609,0-44.81,20.024-45,44.634c0,13.016,0,153.493,0,150.366   c0,15.571,9.961,29.883,26.631,38.276c9.521,4.805,21.548,7.764,34.482,7.764c16.348,0,34.116-4.746,50.024-16.523   c24.961-18.486,51.387-58.403,39.492-143.994c38.159-16.553,59.799-41.616,78.197-63.97   C501.609,285.551,524.994,265.533,503.218,243.084z"/>
	<path style="fill:#FF9100;" d="M360.677,296c-3.3-10.199-10.199-17.1-20.099-20.4c-23.699-7.5-33.3,11.4-37.2,19.501   c-2.701,4.799-4.2,8.099-6.599,9.3c-3.001-0.3-14.702-6.301-31.201-14.7l-9-4.501l-12.299-6.301c-9.3-4.499-19.501-6.899-30-6.899   h-67.5c-27.902-2.1-54.001-8.401-95.402-31.5c-12.599-9.6-30.399-8.701-41.499,2.699c-21.637,22.239,1.786,42.293,2.999,45.3   c18.301,22.5,40.001,47.401,78.1,64.2c-10.199,73.5,8.401,112.8,26.7,133.2c15,17.1,41.7,27.299,66.899,27.299   c9.3,0,18.9-1.5,27.001-4.799c19.2-7.2,30-22.2,30-41.4v-87.299c5.7,0.899,10.8,1.8,15,2.399c10.499,1.8,17.1,3.001,21,3.6   c5.7,0.901,6.599,1.201,6.599,1.201c34.2,5.7,56.1-20.101,62.1-28.2C354.378,348.199,367.578,317.601,360.677,296z"/>
	<path style="fill:#FF9100;" d="M181.578,242c-33.091,0-60-26.909-60-60s26.909-60,60-60s60,26.909,60,60S214.669,242,181.578,242z"/>
	<path style="fill:#25D9F8;" d="M331.578,242c-33.091,0-60-26.909-60-60s26.909-60,60-60s60,26.909,60,60S364.669,242,331.578,242z"/>
	<path style="fill:#FF641A;" d="M346.278,358.7c-6,8.099-27.9,33.9-62.1,28.2c0,0-0.899-0.3-6.599-1.201   c-3.9-0.599-10.501-1.8-21-3.6V285.2l9,4.501c16.5,8.399,28.2,14.399,31.201,14.7c2.399-1.201,3.898-4.501,6.599-9.3   c3.9-8.101,13.5-27.001,37.2-19.501c9.901,3.3,16.8,10.201,20.099,20.4C367.578,317.601,354.378,348.199,346.278,358.7z"/>
</g>















</svg>
