<?xml version="1.0" encoding="iso-8859-1"?>
<!-- Generator: Adobe Illustrator 21.0.0, SVG Export Plug-In . SVG Version: 6.00 Build 0)  -->
<svg xmlns="http://www.w3.org/2000/svg" xmlns:xlink="http://www.w3.org/1999/xlink" version="1.1" id="Capa_1" x="0px" y="0px" viewBox="0 0 512.018 512.018" style="enable-background:new 0 0 512.018 512.018;" xml:space="preserve" width="512" height="512">
<g>
	<path style="fill:#7FE881;" d="M391.009,165.018c0,8.401-6.599,15-15,15h-240c-8.401,0-15-6.599-15-15   c0-52.2,30-96.899,73.5-119.399l-12.001-24.001c-3.6-7.2-0.599-16.199,6.901-20.099c7.2-3.6,16.199-0.599,20.099,6.901l13.2,26.398   c10.8-2.999,21.599-4.799,33.3-4.799s22.5,1.8,33.3,4.799l13.2-26.398c3.9-7.5,12.9-10.501,20.099-6.901   c7.5,3.9,10.501,12.9,6.901,20.099l-12.001,24.001C361.009,68.119,391.009,112.819,391.009,165.018z"/>
	<path style="fill:#5BC980;" d="M391.009,165.018c0,8.401-6.599,15-15,15h-120v-150c11.7,0,22.5,1.8,33.3,4.799l13.2-26.398   c3.9-7.5,12.9-10.501,20.099-6.901c7.5,3.9,10.501,12.9,6.901,20.099l-12.001,24.001   C361.009,68.119,391.009,112.819,391.009,165.018z"/>
	<path style="fill:#5BC980;" d="M466.509,420.018c-24.814,0-45.5-20.186-45.5-45v-120c0-24.814,20.686-45,45.5-45   s45.5,20.186,45.5,45v120C512.009,399.833,491.324,420.018,466.509,420.018z"/>
	<path style="fill:#7FE881;" d="M45.509,420.018c-24.814,0-45.5-20.186-45.5-45v-120c0-24.814,20.686-45,45.5-45   s45.5,20.186,45.5,45v120C91.009,399.833,70.324,420.018,45.509,420.018z"/>
	<circle style="fill:#FFF5F5;" cx="216.009" cy="105.018" r="15"/>
	<circle style="fill:#EFE2DD;" cx="296.009" cy="105.018" r="15"/>
	<path style="fill:#7FE881;" d="M376.009,210.018h-240c-8.401,0-15,6.599-15,15v180c0,8.401,6.599,15,15,15h15v47   c0,24.901,20.099,45,45,45s45-20.099,45-45v-47h30v47c0,24.901,20.099,45,45,45s45-20.099,45-45v-47h15c8.401,0,15-6.599,15-15   v-180C391.009,216.618,384.41,210.018,376.009,210.018z"/>
	<path style="fill:#5BC980;" d="M391.009,225.018v180c0,8.401-6.599,15-15,15h-15v47c0,24.901-20.099,45-45,45s-45-20.099-45-45v-47   h-15v-210h120C384.41,210.018,391.009,216.618,391.009,225.018z"/>
</g>















</svg>
