<?xml version="1.0" encoding="iso-8859-1"?>
<!-- Generator: Adobe Illustrator 21.0.0, SVG Export Plug-In . SVG Version: 6.00 Build 0)  -->
<svg xmlns="http://www.w3.org/2000/svg" xmlns:xlink="http://www.w3.org/1999/xlink" version="1.1" id="Capa_1" x="0px" y="0px" viewBox="0 0 512.015 512.015" style="enable-background:new 0 0 512.015 512.015;" xml:space="preserve" width="512" height="512">
<g>
	<path style="fill:#47568C;" d="M467.507,192.708c-2.699,2.1-6,3.3-9.3,3.3l-202.2,177.001l-1.8,1.5l-210.7-181.8   c-6.601-5.101-7.8-14.401-2.401-21c47.1-60,128.2-95.7,214.9-95.7s166.8,35.7,213.9,95.7   C475.307,178.307,474.108,187.607,467.507,192.708z"/>
	<path style="fill:#2C3B73;" d="M467.507,192.708c-2.699,2.1-6,3.3-9.3,3.3l-202.2,177.001V76.008c86.7,0,166.8,35.7,213.9,95.7   C475.307,178.307,474.108,187.607,467.507,192.708z"/>
	<path style="fill:#FFDA2D;" d="M434.808,176.807L256.008,333.108l-1.8,1.5L73.808,179.508c42.299-46.201,109.9-73.5,182.199-73.5   C326.807,106.008,392.207,132.107,434.808,176.807z"/>
	<path style="fill:#FDBF00;" d="M434.808,176.807L256.008,333.108v-227.1C326.807,106.008,392.207,132.107,434.808,176.807z"/>
	<path style="fill:#47568C;" d="M495.707,215.208c9.901,24.899,15.3,60.599,15.3,85.8c0,74.399-60.601,135-135,135   c-35.7,0-68.101-14.099-92.1-36.899l-14.399,28.499c-2.701,5.101-7.8,8.401-13.5,8.401c-5.7,0-11.8-3.3-14.5-8.401l-14.399-28.499   c-24,22.8-56.4,36.899-92.1,36.899c-74.399,0-135-60.601-135-135c0-25.201,5.4-60.901,15.3-85.8L1.507,187.607   c-2.1-4.499-2.1-10.199,0.601-14.399c2.999-4.499,7.8-7.2,12.9-7.2h120c52.5,0,98.8,30.601,121,74.399   c22.2-43.799,67.5-74.399,120-74.399h121c5.099,0,9.901,2.701,12.9,7.2c2.701,4.2,2.701,9.901,0.601,14.399L495.707,215.208z"/>
	<path style="fill:#2C3B73;" d="M495.707,215.208c9.901,24.899,15.3,60.599,15.3,85.8c0,74.399-60.601,135-135,135   c-35.7,0-68.101-14.099-92.1-36.899l-14.399,28.499c-2.701,5.101-7.8,8.401-13.5,8.401V240.407c22.2-43.799,67.5-74.399,120-74.399   h121c5.099,0,9.901,2.701,12.9,7.2c2.701,4.2,2.701,9.901,0.601,14.399L495.707,215.208z"/>
	<path style="fill:#EFE2DD;" d="M376.008,406.008c-57.891,0-105-47.109-105-105s47.109-105,105-105s105,47.109,105,105   S433.898,406.008,376.008,406.008z"/>
	<path style="fill:#FFF5F5;" d="M135.008,406.008c-57.891,0-105-47.109-105-105s47.109-105,105-105s105,47.109,105,105   S192.898,406.008,135.008,406.008z"/>
	<path style="fill:#47568C;" d="M135.008,376.008c-41.353,0-75-33.647-75-75s33.647-75,75-75s75,33.647,75,75   S176.36,376.008,135.008,376.008z"/>
	<path style="fill:#FFF5F5;" d="M135.008,346.008c-24.814,0-45-20.186-45-45s20.186-45,45-45s45,20.186,45,45   S159.822,346.008,135.008,346.008z"/>
	<circle style="fill:#FF637B;" cx="135.008" cy="301.008" r="15"/>
	<path style="fill:#2C3B73;" d="M376.008,376.008c-41.353,0-75-33.647-75-75s33.647-75,75-75s75,33.647,75,75   S417.36,376.008,376.008,376.008z"/>
	<path style="fill:#EFE2DD;" d="M376.008,346.008c-24.814,0-45-20.186-45-45s20.186-45,45-45s45,20.186,45,45   S400.822,346.008,376.008,346.008z"/>
	<circle style="fill:#5BC980;" cx="376.008" cy="301.008" r="15"/>
</g>















</svg>
