<?xml version="1.0" encoding="iso-8859-1"?>
<!-- Generator: Adobe Illustrator 21.0.0, SVG Export Plug-In . SVG Version: 6.00 Build 0)  -->
<svg xmlns="http://www.w3.org/2000/svg" xmlns:xlink="http://www.w3.org/1999/xlink" version="1.1" id="Capa_1" x="0px" y="0px" viewBox="0 0 512 512" style="enable-background:new 0 0 512 512;" xml:space="preserve" width="512" height="512">
<g>
	<path style="fill:#FF641A;" d="M497,271h-76c-8.401,0-15,6.599-15,15v67.5c0,8.401-6.599,15-15,15s-15-6.599-15-15v-81   c0-4.799-2.401-9.3-6.301-11.999c-3.9-3.001-9-3.6-13.499-2.1l-41.4,13.799l-22.202-11.1c-4.499-2.399-10.199-2.1-14.399,0.601   c-4.499,2.701-7.2,7.5-7.2,12.9v78.9c0,66.301,53.699,120,120,120s121-53.699,121-120V286C512,277.599,505.401,271,497,271z"/>
	<path style="fill:#FF9100;" d="M256,38.5c-66.301,0-120,53.699-120,120v195c0,8.401-6.599,15-15,15s-15-6.599-15-15V286   c0-8.401-6.599-15-15-15H15c-8.401,0-15,6.599-15,15v67.5c0,66.301,54.699,120,121,120s120-53.699,120-120v-195   c0-8.401,6.599-15,15-15s15,6.599,15,15v48.9c0,5.7,3.3,10.8,8.401,13.5l32.098,16.199c3.6,1.8,7.8,2.1,11.4,0.601l42.9-14.101   c6-2.1,10.201-7.8,10.201-14.099v-51C376,92.199,322.301,38.5,256,38.5z"/>
	<path style="fill:#FF641A;" d="M271,158.5c0-8.401-6.599-15-15-15v-105c66.301,0,120,53.699,120,120v51   c0,6.299-4.2,11.999-10.201,14.099l-42.9,14.101c-3.6,1.5-7.8,1.199-11.4-0.601l-32.098-16.199C274.3,218.2,271,213.1,271,207.4   V158.5z"/>
</g>















</svg>
