<?xml version="1.0" encoding="iso-8859-1"?>
<!-- Generator: Adobe Illustrator 21.0.0, SVG Export Plug-In . SVG Version: 6.00 Build 0)  -->
<svg xmlns="http://www.w3.org/2000/svg" xmlns:xlink="http://www.w3.org/1999/xlink" version="1.1" id="Capa_1" x="0px" y="0px" viewBox="0 0 512 512" style="enable-background:new 0 0 512 512;" xml:space="preserve" width="512" height="512">
<g>
	<path style="fill:#7FE881;" d="M406.5,302c-23.699,0-46.199,7.8-64.501,22.5L210.5,258.1v-4.2l131.499-66.4   c18.301,14.7,40.801,22.5,64.501,22.5c57.9,0,105-47.1,105-105S464.4,0,406.5,0s-105,47.1-105,105v2.1l-131.499,66.4   C151.699,158.8,129.199,151,105.5,151c-57.9,0-105,47.1-105,105s47.1,105,105,105c23.699,0,46.199-7.8,64.501-22.5L301.5,404.9v2.1   c0,57.9,47.1,105,105,105s105-47.1,105-105S464.4,302,406.5,302z"/>
	<path style="fill:#5BC980;" d="M511.5,407c0,57.9-47.1,105-105,105s-105-47.1-105-105v-2.1l-131.499-66.4   C151.699,353.2,129.199,361,105.5,361c-57.9,0-105-47.1-105-105h210v2.1l131.499,66.4c18.301-14.7,40.801-22.5,64.501-22.5   C464.4,302,511.5,349.1,511.5,407z"/>
</g>















</svg>
