<?xml version="1.0" encoding="iso-8859-1"?>
<!-- Generator: Adobe Illustrator 21.0.0, SVG Export Plug-In . SVG Version: 6.00 Build 0)  -->
<svg xmlns="http://www.w3.org/2000/svg" xmlns:xlink="http://www.w3.org/1999/xlink" version="1.1" id="Capa_1" x="0px" y="0px" viewBox="0 0 512.3 512.3" style="enable-background:new 0 0 512.3 512.3;" xml:space="preserve" width="512" height="512">
<g>
	<path style="fill:#7FE881;" d="M55.452,90h80.999V9L55.452,90z M410.05,55.201c-36.599-5.101-62.399-6.601-79.501-7.8   c-11.997-0.601-24.598-1.5-26.997-2.701c-7.5-16.8-18.303-28.799-32.102-36C260.951,2.999,248.95,0,235.452,0H166.45v105   c0,8.401-6.599,15-15,15H46.15c-0.3,5.099-0.3,11.1-0.3,17.999c0.3,68.701,19.2,172.101,34.501,189.202   c15,16.5,67.8,34.799,116.1,34.799c35.398,0,48.9-26.1,60.901-56.7c4.797,5.101,9.598,9.3,14.099,13.2   c37.2,31.201,66.299,27.001,84.001,24.6c1.201,0,2.699-0.3,3.896-0.601c0.3,1.501,0.3,3.001,0.3,5.101   c0,85.499-2.098,85.499-38.698,85.499l-4.2,0.3c-3.3,0-10.203,0-11.7-0.601c0,0-0.3-1.199-0.3-5.4c0,0,2.098-1.8,10.8-1.8l7.8-0.3   c7.8-0.3,14.099-6.299,14.399-14.099L340.152,371c0-3.9-1.201-7.8-3.904-10.8c-2.695-2.999-6.299-4.799-10.496-4.799   c-1.501,0-29.399-1.201-54.302,10.499c-6.599,2.999-13.198,7.2-18.9,12.599c-12.902,12.301-19.501,28.2-19.501,47.701   c0,27.599,7.5,48.9,22.8,63.9c4.801,4.799,10.203,8.399,15.601,11.1c14.7,8.099,31.201,10.499,44.099,10.8   c2.402,0.3,5.101,0.3,7.2,0.3c3.003,0,5.402-0.3,7.8-0.3h4.2c80.702,0,118.802-45.3,128.998-161.7   c1.802-22.8,2.703-47.1,2.703-73.5C466.45,92.601,458.95,61.8,410.05,55.201z M376.45,242h-60c-8.401,0-15-6.599-15-15   c0-24.901,20.098-45,45-45s45,20.099,45,45C391.45,235.401,384.851,242,376.45,242z"/>
	<path style="fill:#5BC980;" d="M410.05,55.201c-36.599-5.101-62.399-6.601-79.501-7.8c-11.997-0.601-24.598-1.5-26.997-2.701   c-7.5-16.8-18.303-28.799-32.102-36v309.8c37.2,31.201,66.299,27.001,84.001,24.6c1.201,0,2.699-0.3,3.896-0.601   c0.3,1.501,0.3,3.001,0.3,5.101c0,85.499-2.098,85.499-38.698,85.499l-4.2,0.3c-3.3,0-10.203,0-11.7-0.601c0,0-0.3-1.199-0.3-5.4   c0,0,2.098-1.8,10.8-1.8l7.8-0.3c7.8-0.3,14.099-6.299,14.399-14.099L340.152,371c0-3.9-1.201-7.8-3.904-10.8   c-2.695-2.999-6.299-4.799-10.496-4.799c-1.501,0-29.399-1.201-54.302,10.499v135.3c14.7,8.099,31.201,10.499,44.099,10.8   c2.402,0.3,5.101,0.3,7.2,0.3c3.003,0,5.402-0.3,7.8-0.3h4.2c80.702,0,118.802-45.3,128.998-161.7   c1.802-22.8,2.703-47.1,2.703-73.5C466.45,92.601,458.95,61.8,410.05,55.201z M376.45,242h-60c-8.401,0-15-6.599-15-15   c0-24.901,20.098-45,45-45s45,20.099,45,45C391.45,235.401,384.851,242,376.45,242z"/>
</g>















</svg>
