<?xml version="1.0" encoding="iso-8859-1"?>
<!-- Generator: Adobe Illustrator 21.0.0, SVG Export Plug-In . SVG Version: 6.00 Build 0)  -->
<svg xmlns="http://www.w3.org/2000/svg" xmlns:xlink="http://www.w3.org/1999/xlink" version="1.1" id="Capa_1" x="0px" y="0px" viewBox="0 0 512.028 512.028" style="enable-background:new 0 0 512.028 512.028;" xml:space="preserve" width="512" height="512">
<g>
	<path style="fill:#25D9F8;" d="M508.605,106.679c-3.6-4.2-11.2-6-16.301-5.4c-1.8,0-3.898,0.3-5.7,0.3   c4.501-6.899,7.8-13.801,10.201-21.301c1.8-5.4,0.601-11.4-3.6-15.599c-4.2-3.9-10.201-5.402-15.601-3.301l-14.099,5.101   c-12.599,4.499-24.6,8.699-37.5,13.799c0,0-0.601-0.3-2.701-2.1c-31.5-26.1-73.2-34.199-112.2-21.599   c-23.101,7.5-42.599,21.899-56.1,40.8c-8.401,11.4-14.399,24.6-17.999,38.699c-2.401,10.501-3.001,21-3.301,31.201   c-69.6-7.8-129.6-39.3-178.2-93.6c-3.3-3.6-8.099-5.4-12.9-4.801c-4.799,0.601-9,3.6-11.4,7.8c-11.4,20.7-16.199,40.8-15,61.199   c1.201,17.701,6.301,33.9,15,48.6c-3.9-0.3-7.5,0.901-10.499,3.301c-3.9,2.999-5.7,7.798-5.4,12.599c2.1,34.799,15,62.1,39.6,82.8   c-1.201,0.899-2.1,1.8-2.701,2.999c-2.999,4.2-3.6,9.6-1.5,14.101c13.5,33.3,35.4,55.8,66.899,67.798   c-31.199,15.3-64.699,21.601-101.599,19.2c-7.5-0.3-13.2,3.9-15.3,10.501c-2.1,6.599,0.599,13.799,6.599,17.399   c39.3,24.3,82.4,38.401,131.901,42.9c9.6,0.901,18.9,1.201,28.5,1.201c30.298,0,59.7-4.501,87.299-12.601   c29.099-8.699,56.1-21.599,80.7-38.399c48.3-32.701,86.1-79.799,107.999-137.701c12.301-32.699,18.9-67.2,19.2-102.299   c0.3-0.601,1.199-2.701,3.001-4.501c9.3-9.6,18.898-18.9,28.499-28.2l10.901-8.099c0.599-0.601,0.899-0.901,1.5-1.199   C513.106,122.878,513.705,113.28,508.605,106.679z"/>
	<path style="fill:#00C0F1;" d="M506.806,128.28c-0.601,0.298-0.901,0.599-1.5,1.199l-10.901,8.099   c-9.6,9.3-19.199,18.6-28.499,28.2c-1.802,1.8-2.701,3.9-3.001,4.501c-0.3,35.099-6.899,69.6-19.2,102.299   c-21.899,57.902-59.7,105-107.999,137.701c-24.6,16.8-51.601,29.7-80.7,38.399V97.379c13.5-18.9,32.999-33.3,56.1-40.8   c39-12.599,80.7-4.501,112.2,21.599c2.1,1.8,2.701,2.1,2.701,2.1c12.9-5.099,24.901-9.3,37.5-13.799l14.099-5.101   c5.4-2.1,11.4-0.599,15.601,3.301c4.2,4.199,5.4,10.199,3.6,15.599c-2.401,7.5-5.7,14.401-10.201,21.301c1.802,0,3.9-0.3,5.7-0.3   c5.101-0.601,12.701,1.199,16.301,5.4C513.705,113.28,513.106,122.878,506.806,128.28z"/>
</g>















</svg>
