<?xml version="1.0" encoding="iso-8859-1"?>
<!-- Generator: Adobe Illustrator 21.0.0, SVG Export Plug-In . SVG Version: 6.00 Build 0)  -->
<svg xmlns="http://www.w3.org/2000/svg" xmlns:xlink="http://www.w3.org/1999/xlink" version="1.1" id="Capa_1" x="0px" y="0px" viewBox="0 0 512 512" style="enable-background:new 0 0 512 512;" xml:space="preserve" width="512" height="512">
<g>
	<path style="fill:#FF9100;" d="M481,180h-60c-8.401,0-15-6.601-15-15v-30C406,60.601,345.399,0,271,0H151   C76.601,0,16,60.601,16,135v242c0,74.399,60.601,135,135,135h210c74.399,0,135-60.601,135-135V195C496,186.599,489.401,180,481,180   z M136,135c0-8.401,6.599-15,15-15h120c8.401,0,15,6.599,15,15v30c0,8.399-6.599,15-15,15H151c-8.401,0-15-6.601-15-15V135z    M376,377c0,8.399-6.599,15-15,15H151c-8.401,0-15-6.601-15-15v-30c0-8.401,6.599-15,15-15h210c8.401,0,15,6.599,15,15V377z"/>
	<path style="fill:#FF641A;" d="M496,195v182c0,74.399-60.601,135-135,135H211V392h150c8.401,0,15-6.601,15-15v-30   c0-8.401-6.599-15-15-15H211V180h60c8.401,0,15-6.601,15-15v-30c0-8.401-6.599-15-15-15h-60V0h60c74.399,0,135,60.601,135,135v30   c0,8.399,6.599,15,15,15h60C489.401,180,496,186.599,496,195z"/>
</g>















</svg>
