<?xml version="1.0" encoding="iso-8859-1"?>
<!-- Generator: Adobe Illustrator 21.0.0, SVG Export Plug-In . SVG Version: 6.00 Build 0)  -->
<svg xmlns="http://www.w3.org/2000/svg" xmlns:xlink="http://www.w3.org/1999/xlink" version="1.1" id="Capa_1" x="0px" y="0px" viewBox="0 0 511.979 511.979" style="enable-background:new 0 0 511.979 511.979;" xml:space="preserve" width="512" height="512">
<g>
	<path style="fill:#25D9F8;" d="M430.378,30.089c-14.7,0-89.7,4.499-125.999,93.898c-2.1,5.101-1.201,11.102,2.399,15.3   c3.301,4.501,9,6.601,14.401,5.7c20.099-3.6,45,2.401,45,36c0,49.2-63.101,140.4-83.2,140.4c-11.1,0-19.801-17.401-27.001-41.4   c-6.599-22.5-12.001-51-16.8-76.199c-2.701-14.399-5.4-29.101-8.401-43.2l-5.099-24.901c-11.7-59.099-19.499-98.099-66.299-98.099   c-27.301,0-39.6,10.499-106.501,69l-47.7,35.7c-6,5.099-6.899,14.399-2.1,20.7l6.601,8.699c5.099,6.601,14.399,8.101,21,3.3   c14.7-10.499,29.999-15.599,37.199-15.599c25.201,0,45.601,80.4,60.601,139.499c22.8,90,46.199,183.001,106.199,183.001   c6.601,0,13.801-1.201,21.301-3.9c92.401-30.901,256-237.601,256-359.101C511.979,53.488,469.978,30.089,430.378,30.089z"/>
	<path style="fill:#00C0F1;" d="M511.979,118.888c0,121.5-163.6,328.2-256,359.101V279.988c7.2,24,15.901,41.4,27.001,41.4   c20.099,0,83.2-91.199,83.2-140.4c0-33.6-24.901-39.6-45-36c-5.402,0.901-11.1-1.199-14.401-5.7   c-3.6-4.199-4.499-10.199-2.399-15.3c36.299-89.399,111.299-93.898,125.999-93.898C469.978,30.089,511.979,53.488,511.979,118.888z   "/>
</g>















</svg>
