<?xml version="1.0" encoding="iso-8859-1"?>
<!-- Generator: Adobe Illustrator 21.0.0, SVG Export Plug-In . SVG Version: 6.00 Build 0)  -->
<svg xmlns="http://www.w3.org/2000/svg" xmlns:xlink="http://www.w3.org/1999/xlink" version="1.1" id="Capa_1" x="0px" y="0px" viewBox="0 0 512 512" style="enable-background:new 0 0 512 512;" xml:space="preserve" width="512" height="512">
<g>
	<path style="fill:#FF9100;" d="M497,61H392c-8.401,0-15,6.599-15,15v255h-52.5V76c0-8.401-6.599-15-15-15h-107   c-8.401,0-15,6.599-15,15v255H165c-16.5,0-30-13.5-30-30V76c0-8.401-6.599-15-15-15H15C6.599,61,0,67.599,0,76v210   c0,90.899,74.099,165,165,165h332c8.401,0,15-6.601,15-15V76C512,67.599,505.401,61,497,61z"/>
	<path style="fill:#FF641A;" d="M512,76v360c0,8.399-6.599,15-15,15H256V61h53.5c8.401,0,15,6.599,15,15v255H377V76   c0-8.401,6.599-15,15-15h105C505.401,61,512,67.599,512,76z"/>
</g>















</svg>
