<?xml version="1.0" encoding="iso-8859-1"?>
<!-- Generator: Adobe Illustrator 21.0.0, SVG Export Plug-In . SVG Version: 6.00 Build 0)  -->
<svg xmlns="http://www.w3.org/2000/svg" xmlns:xlink="http://www.w3.org/1999/xlink" version="1.1" id="Capa_1" x="0px" y="0px" viewBox="0 0 512 512" style="enable-background:new 0 0 512 512;" xml:space="preserve" width="512" height="512">
<g id="Google_Plus">
	<g>
		<path style="fill:#FF637B;" d="M467,331h-60c-8.284,0-15-6.716-15-15v-15h-15c-8.284,0-15-6.716-15-15v-60c0-8.284,6.716-15,15-15    h15v-15c0-8.284,6.716-15,15-15h60c8.284,0,15,6.716,15,15v15h15c8.284,0,15,6.716,15,15v60c0,8.284-6.716,15-15,15h-15v15    C482,324.284,475.284,331,467,331z"/>
	</g>
	<path style="fill:#E63950;" d="M467,331c8.284,0,15-6.716,15-15v-15h15c8.284,0,15-6.716,15-15v-60c0-8.284-6.716-15-15-15h-15v-15   c0-8.284-6.716-15-15-15h-30v150H467z"/>
	<g>
		<path style="fill:#FF637B;" d="M165,421C74.019,421,0,346.981,0,256S74.019,91,165,91c44.073,0,85.508,17.163,116.672,48.328    c5.858,5.858,5.858,15.355,0,21.213l-42.454,42.455c-5.857,5.858-15.355,5.858-21.213,0C203.82,188.812,184.996,181,165,181    c-41.355,0-75,33.645-75,75s33.645,75,75,75c23.954,0,46.039-11.48,59.976-30H180c-8.284,0-15-6.716-15-15v-60    c0-8.284,6.716-15,15-15h131.999c7.134,0,13.281,5.024,14.7,12.016C328.89,233.805,330,244.903,330,256    C330,346.981,255.981,421,165,421z"/>
	</g>
	<g>
		<path style="fill:#E63950;" d="M311.999,211H180c-8.284,0-15,6.716-15,15v60c0,8.284,6.716,15,15,15h44.976    c-13.937,18.52-36.021,30-59.976,30v90c90.981,0,165-74.019,165-165c0-11.132-1.117-22.265-3.322-33.086    C325.263,215.962,319.093,211,311.999,211z"/>
		<path style="fill:#E63950;" d="M218.005,202.996c5.857,5.858,15.355,5.858,21.213,0l42.454-42.455    c5.858-5.858,5.858-15.355,0-21.213C250.508,108.163,209.073,91,165,91v90C184.996,181,203.82,188.812,218.005,202.996z"/>
	</g>
</g>















</svg>
