<?xml version="1.0" encoding="iso-8859-1"?>
<!-- Generator: Adobe Illustrator 21.0.0, SVG Export Plug-In . SVG Version: 6.00 Build 0)  -->
<svg xmlns="http://www.w3.org/2000/svg" xmlns:xlink="http://www.w3.org/1999/xlink" version="1.1" id="Capa_1" x="0px" y="0px" viewBox="0 0 512 512" style="enable-background:new 0 0 512 512;" xml:space="preserve" width="512" height="512">
<g>
	<path style="fill:#737EE6;" d="M376,120c8.401,0,15-6.601,15-15V15c0-8.401-6.599-15-15-15h-90c-10.499,0-20.4,1.5-30,4.499   c-43.2,12.9-75,53.101-75,100.501v75h-45c-8.401,0-15,6.599-15,15v90c0,8.399,6.599,17,15,17h45v195c0,8.399,6.599,15,15,15h90   c8.401,0,15-6.601,15-15V302h60c7.2,0,13.5-7.4,14.7-14.601l15-90c0.901-4.199-0.3-8.699-3.3-11.999c-2.701-3.6-6.899-5.4-11.4-5.4   h-75v-60H376z"/>
	<path style="fill:#615AD3;" d="M301,120v60h75c4.501,0,8.699,1.8,11.4,5.4c2.999,3.3,4.2,7.8,3.3,11.999l-15,90   C374.5,294.6,368.2,302,361,302h-60v195c0,8.399-6.599,15-15,15h-30V4.499C265.6,1.5,275.501,0,286,0h90c8.401,0,15,6.599,15,15v90   c0,8.399-6.599,15-15,15H301z"/>
</g>















</svg>
