<?xml version="1.0" encoding="iso-8859-1"?>
<!-- Generator: Adobe Illustrator 21.0.0, SVG Export Plug-In . SVG Version: 6.00 Build 0)  -->
<svg xmlns="http://www.w3.org/2000/svg" xmlns:xlink="http://www.w3.org/1999/xlink" version="1.1" id="Capa_1" x="0px" y="0px" viewBox="0 0 512 512" style="enable-background:new 0 0 512 512;" xml:space="preserve" width="512" height="512">
<g>
	<path style="fill:#25D9F8;" d="M256.3,1H256C96.7,1.3,0,122.8,0,240.4C0,304.9,31.3,363.1,91.3,413.2   c0,6.899,0.3,14.099,0.3,21.599c0,9.901-0.3,20.402-0.3,30.601C91,475.6,91,486.1,91,496c0,5.4,2.701,10.199,7.5,12.9   c2.1,1.5,4.799,2.1,7.5,2.1c2.401,0,5.099-0.601,7.2-1.8c12.001-6.601,23.401-13.5,34.501-20.101c14.099-9,27.9-17.098,41.7-24   c22.798,5.101,45,7.5,66.599,7.5h0.3c139.499,0,255.7-105.899,255.7-235.8C512,91,378.1,1,256.3,1z"/>
	<path style="fill:#00C0F1;" d="M512,236.8c0,129.9-116.201,235.8-255.7,235.8H256V1h0.3C378.1,1,512,91,512,236.8z"/>
	<path style="fill:#FFF5F5;" d="M418.001,171.7c-4.501-6-12.601-7.5-19.2-4.2c-33.816,18.785-81.081,41.77-102.001,53.101   L256,183.399L238.599,167.5c-6-5.4-15.3-5.099-21,0.601c-41.606,44.089-86.717,93.251-122.699,130.8   c-5.099,5.099-5.4,13.2-1.199,19.2c4.199,5.7,12.299,7.798,18.6,4.499c3.3-1.5,73.499-38.399,103.799-55.499   c12.9,13.2,26.4,25.499,39.901,37.2c0.3,0.601,0.901,0.901,1.199,1.199l16.201,14.702c2.699,2.699,6.599,3.898,10.199,3.898   c3.9,0,7.8-1.5,10.801-4.499L416.8,191.199C421.901,185.799,422.5,177.701,418.001,171.7z"/>
	<path style="fill:#EFE2DD;" d="M416.8,191.199L294.401,319.6c-3.001,2.999-6.901,4.499-10.801,4.499c-3.6,0-7.5-1.199-10.199-3.898   l-16.201-14.702c-0.298-0.298-0.899-0.599-1.199-1.199V183.399l40.8,37.202c20.484-11.095,69.938-35.289,102.001-53.101   c6.599-3.3,14.7-1.8,19.2,4.2C422.5,177.701,421.901,185.799,416.8,191.199z"/>
</g>















</svg>
