<?xml version="1.0" encoding="iso-8859-1"?>
<!-- Generator: Adobe Illustrator 21.0.0, SVG Export Plug-In . SVG Version: 6.00 Build 0)  -->
<svg xmlns="http://www.w3.org/2000/svg" xmlns:xlink="http://www.w3.org/1999/xlink" version="1.1" id="Capa_1" x="0px" y="0px" viewBox="0 0 512 512" style="enable-background:new 0 0 512 512;" xml:space="preserve" width="512" height="512">
<g>
	<path style="fill:#FF7CB9;" d="M241.002,150h168.3l26.4-132.001c0.901-4.499-0.3-9-2.999-12.599c-3.001-3.3-7.2-5.4-11.7-5.4h-330   c-8.401,0-15,6.599-15,15v482c0,6.299,3.9,11.999,9.901,14.099c1.8,0.601,3.3,0.901,5.099,0.901c4.501,0,8.699-1.8,11.4-5.4   l138.6-168.201l6.899-8.399h113.101c7.2,0,13.2-5.101,14.7-12.001L403.301,180H241.002c-8.401,0-15-6.601-15-15   C226.002,156.599,232.601,150,241.002,150z"/>
	<path style="fill:#FA5E97;" d="M403.3,180l-27.6,138c-1.5,6.9-7.5,12-14.7,12H248V180H403.3z"/>
	<path style="fill:#FA5E97;" d="M435.7,18l-26.4,132H248V0h173c4.5,0,8.7,2.1,11.7,5.4C435.4,9,436.6,13.5,435.7,18z"/>
</g>















</svg>
