<?xml version="1.0" encoding="iso-8859-1"?>
<!-- Generator: Adobe Illustrator 21.0.0, SVG Export Plug-In . SVG Version: 6.00 Build 0)  -->
<svg xmlns="http://www.w3.org/2000/svg" xmlns:xlink="http://www.w3.org/1999/xlink" version="1.1" id="Capa_1" x="0px" y="0px" viewBox="0 0 512 512" style="enable-background:new 0 0 512 512;" xml:space="preserve" width="512" height="512">
<g>
	<path style="fill:#737EE6;" d="M467,198.699c-37.8-33.6-86.4-32.399-105.601-30.599c-26.699,2.999-45.599,13.2-59.399,24.3V181   c0-8.401-6.599-15-15-15H180c-8.401,0-15,6.599-15,15v300c0,8.399,6.599,15,15,15h107c8.401,0,15-6.601,15-15V309.399   c0-15,19.799-30,40.8-30.899c14.7-0.3,32.401,5.7,34.2,36V481c0,8.399,6.599,15,15,15h105c3.9,0,7.8-1.5,10.499-4.501   C510.5,488.8,512,484.9,512,481V320.499C511.7,266.199,496.7,225.399,467,198.699z"/>
	<path style="fill:#737EE6;" d="M120,166H15c-8.401,0-15,6.599-15,15v300c0,8.399,6.599,15,15,15h105c8.401,0,15-6.601,15-15V181   C135,172.599,128.401,166,120,166z"/>
	<path style="fill:#737EE6;" d="M67.5,16C30.3,16,0,42.999,0,76c0,32.999,30.3,60,67.5,60S135,108.999,135,76   C135,42.999,104.7,16,67.5,16z"/>
	<path style="fill:#615AD3;" d="M512,320.499V481c0,3.9-1.5,7.8-4.501,10.499C504.8,494.5,500.9,496,497,496H392   c-8.401,0-15-6.601-15-15V314.5c-1.8-30.3-19.501-36.301-34.2-36c-21,0.899-40.8,15.899-40.8,30.899V481c0,8.399-6.599,15-15,15   h-30V166h30c8.401,0,15,6.599,15,15v11.4c13.801-11.1,32.701-21.301,59.399-24.3c19.2-1.8,67.8-3.001,105.601,30.599   C496.7,225.399,511.7,266.199,512,320.499z"/>
</g>















</svg>
