<?xml version="1.0" encoding="iso-8859-1"?>
<!-- Generator: Adobe Illustrator 21.0.0, SVG Export Plug-In . SVG Version: 6.00 Build 0)  -->
<svg xmlns="http://www.w3.org/2000/svg" xmlns:xlink="http://www.w3.org/1999/xlink" version="1.1" id="Capa_1" x="0px" y="0px" viewBox="0 0 512 512" style="enable-background:new 0 0 512 512;" xml:space="preserve" width="512" height="512">
<g>
	<path style="fill:#25D9F8;" d="M391,512c-25.231,0-50.078-8.378-70.813-23.742C299.318,494.062,277.764,497,256,497   c-64.014,0-124.435-25.167-170.134-70.866S15,320.014,15,256c0-21.763,2.938-43.317,8.743-64.187C8.378,171.079,0,146.231,0,121   c0-32.005,12.673-62.304,35.685-85.315C58.696,12.673,88.995,0,121,0c25.231,0,50.079,8.378,70.813,23.743   C212.683,17.938,234.237,15,256,15c64.014,0,124.435,25.167,170.134,70.866S497,191.986,497,256   c0,21.763-2.938,43.317-8.743,64.187C503.622,340.922,512,365.769,512,391c0,32.005-12.673,62.304-35.685,85.315   C453.304,499.327,423.005,512,391,512z"/>
	<path style="fill:#00C0F1;" d="M320.187,488.258C340.922,503.622,365.769,512,391,512c32.005,0,62.304-12.673,85.315-35.685   C499.327,453.304,512,423.005,512,391c0-25.231-8.378-50.078-23.743-70.813C494.062,299.317,497,277.763,497,256   c0-64.014-25.167-124.435-70.866-170.134S320.014,15,256,15v482C277.764,497,299.318,494.062,320.187,488.258z"/>
	<path style="fill:#FFF5F5;" d="M256,421c-32.861,0-64.333-8.935-88.62-25.159c-40-26.643-39.256-52.268-31.586-69.071   c7.257-15.896,22.584-25.771,40-25.771c17.961,0,28.831,7.883,38.421,14.838c10.443,7.573,20.306,14.727,43.615,14.727   c12.98,0,43.169-1.419,43.169-14.565c0-8.691-18.925-15-45-15c-76.962,0-135-45.14-135-105c0-29.347,13.858-56.088,39.021-75.297   c24.811-18.94,57.999-28.952,95.976-28.952c33.588,0,65.062,8.668,88.624,24.408c28.305,18.854,39.831,39.562,34.24,61.539   C373.872,197.306,356.332,211,336.206,211c-17.961,0-28.831-7.883-38.421-14.838c-10.442-7.573-20.306-14.727-43.615-14.727   c-12.98,0-43.169,1.419-43.169,14.564c0,8.691,18.925,15,45,15c76.962,0,135,45.14,135,105c0,29.184-14.209,56.064-40.009,75.688   C326.141,410.59,292.406,421,256,421z"/>
	<path style="fill:#EFE2DD;" d="M256,211v90c26.075,0,45,6.309,45,15c0,13.146-30.189,14.565-43.169,14.565   c-0.621,0-1.228-0.008-1.831-0.018V421c36.406,0,70.141-10.41,94.991-29.312C376.791,372.064,391,345.184,391,316   C391,256.14,332.962,211,256,211z"/>
	<path style="fill:#EFE2DD;" d="M256,181.453c21.999,0.367,31.62,7.338,41.784,14.709c9.59,6.955,20.46,14.838,38.421,14.838   c20.126,0,37.667-13.694,42.655-33.303c5.59-21.977-5.936-42.685-34.24-61.539c-23.561-15.739-55.034-24.407-88.62-24.408V181.453z   "/>
</g>















</svg>
