<?xml version="1.0" encoding="iso-8859-1"?>
<!-- Generator: Adobe Illustrator 21.0.0, SVG Export Plug-In . SVG Version: 6.00 Build 0)  -->
<svg xmlns="http://www.w3.org/2000/svg" xmlns:xlink="http://www.w3.org/1999/xlink" version="1.1" id="Capa_1" x="0px" y="0px" viewBox="0 0 512 512" style="enable-background:new 0 0 512 512;" xml:space="preserve" width="512" height="512">
<g>
	<path style="fill:#615AD3;" d="M391,181c-36.599,0-69.6,16.5-91.8,42.599C281.8,244.6,271,271.599,271,301v195   c0,8.399,6.599,15,15,15h211c8.401,0,15-6.601,15-15V301C512,234.699,457.301,181,391,181z"/>
	<path style="fill:#615AD3;" d="M391,1c-49.501,0-90,40.499-90,90c0,49.499,40.499,90,90,90s90-40.501,90-90   C481,41.499,440.501,1,391,1z"/>
	<path style="fill:#737EE6;" d="M256,163.299c-13.2-7.8-28.5-12.299-45-12.299c-29.099,0-54.901,14.099-71.4,35.4   c-11.7,15.3-18.6,34.2-18.6,54.6v165c0,8.399,6.599,15,15,15h105V301c0-22.5,5.099-44.7,15-65.101   c5.4-11.1,12.001-21.899,20.099-31.5c3.6-3.9,7.2-7.8,10.801-11.4C279.101,180.7,268.599,170.499,256,163.299z"/>
	<path style="fill:#615AD3;" d="M256,163.299c-13.2-7.8-28.5-12.299-45-12.299v270h30V301c0-22.5,5.099-44.7,15-65.101   c5.4-11.1,12.001-21.899,20.099-31.5c3.6-3.9,7.2-7.8,10.801-11.4C279.101,180.7,268.6,170.499,256,163.299z"/>
	<path style="fill:#737EE6;" d="M211,31c-32.999,0-60,26.999-60,60c0,32.999,27.001,60,60,60c29.64,0,60-24.242,60-60   C271,55.29,240.707,31,211,31z"/>
	<path style="fill:#615AD3;" d="M211,151c29.64,0,60-24.242,60-60c0-35.71-30.292-60-60-60V151z"/>
	<path style="fill:#737EE6;" d="M76,151c-41.4,0-76,33.6-76,75v120c0,8.399,6.599,15,15,15h76V241c0-26.4,8.699-51.601,24.901-72.9   c0.899-1.201,1.8-2.401,2.999-3.6C106.901,156.099,91.901,151,76,151z"/>
	<path style="fill:#737EE6;" d="M76,61c-24.901,0-45,20.099-45,45c0,24.899,20.099,45,45,45s45-20.101,45-45   C121,81.099,100.901,61,76,61z"/>
</g>















</svg>
