<?xml version="1.0" encoding="iso-8859-1"?>
<!-- Generator: Adobe Illustrator 21.0.0, SVG Export Plug-In . SVG Version: 6.00 Build 0)  -->
<svg xmlns="http://www.w3.org/2000/svg" xmlns:xlink="http://www.w3.org/1999/xlink" version="1.1" id="Capa_1" x="0px" y="0px" viewBox="0 0 512 512" style="enable-background:new 0 0 512 512;" xml:space="preserve" width="512" height="512">
<g>
	<path style="fill:#FF9100;" d="M497,181H331V15c0-8.401-6.599-15-15-15H196c-8.401,0-15,6.599-15,15v166H15   c-8.401,0-15,6.599-15,15v120c0,8.399,6.599,15,15,15h166v166c0,8.399,6.599,15,15,15h120c8.401,0,15-6.601,15-15V331h166   c8.401,0,15-6.601,15-15V196C512,187.599,505.401,181,497,181z"/>
	<path style="fill:#FF641A;" d="M512,196v120c0,8.399-6.599,15-15,15H331v166c0,8.399-6.599,15-15,15h-60V0h60   c8.401,0,15,6.599,15,15v166h166C505.401,181,512,187.599,512,196z"/>
</g>















</svg>
