<?xml version="1.0" encoding="iso-8859-1"?>
<!-- Generator: Adobe Illustrator 21.0.0, SVG Export Plug-In . SVG Version: 6.00 Build 0)  -->
<svg xmlns="http://www.w3.org/2000/svg" xmlns:xlink="http://www.w3.org/1999/xlink" version="1.1" id="Capa_1" x="0px" y="0px" viewBox="0 0 512 512" style="enable-background:new 0 0 512 512;" xml:space="preserve" width="512" height="512">
<g>
	<path style="fill:#7FE881;" d="M256,0C115.3,0,0,115.3,0,256c0,46.5,13.599,92.5,37.301,132.1L0.8,492.3   c-1.8,5.4-0.3,11.1,3.6,15.298c4.2,3.9,10.201,5.402,15.3,3.602l105.2-35.501C164.5,499.399,209.5,512,256,512   c140.7,0,256-115.3,256-256S396.7,0,256,0z"/>
	<path style="fill:#5BC980;" d="M512,256c0,140.7-115.3,256-256,256V0C396.7,0,512,115.3,512,256z"/>
	<g>
		<path style="fill:#FFF5F5;" d="M411.7,317.5l-47.701-47.701c-11.999-11.999-32.999-11.999-45,0L307,281.8    c-7.2,7.2-19.2,7.2-26.4,0l-47.701-47.701c-7.2-7.2-7.2-19.199,0-26.398L244.9,195.7c12.299-12.301,12.299-32.701,0-45    l-47.701-47.701c-12.299-12.299-32.399-12.299-45,0L140.2,115C107.8,147.4,116.499,255.099,187.899,326.8    c19.501,19.501,42.9,35.4,68.101,46.8c26.266,11.397,56.853,19.2,84.6,19.2c25.8,0,47.1-6.601,59.099-18.3L411.7,362.5    c6-6,9.3-14.101,9.3-22.5C421,331.3,417.7,323.5,411.7,317.5z"/>
	</g>
	<path style="fill:#EFE2DD;" d="M421,340c0,8.399-3.3,16.5-9.3,22.5L399.699,374.5c-11.999,11.699-33.3,18.3-59.099,18.3   c-27.823,0-58.422-7.842-84.6-19.2v-116.4l24.6,24.6c7.2,7.2,19.2,7.2,26.4,0l11.999-12.001c12.001-11.999,33.001-11.999,45,0   L411.7,317.5C417.7,323.5,421,331.3,421,340z"/>
</g>















</svg>
