<?xml version="1.0" encoding="iso-8859-1"?>
<!-- Generator: Adobe Illustrator 21.0.0, SVG Export Plug-In . SVG Version: 6.00 Build 0)  -->
<svg xmlns="http://www.w3.org/2000/svg" xmlns:xlink="http://www.w3.org/1999/xlink" version="1.1" id="Capa_1" x="0px" y="0px" viewBox="0 0 512.002 512.002" style="enable-background:new 0 0 512.002 512.002;" xml:space="preserve" width="512" height="512">
<g>
	<path style="fill:#FDBF00;" d="M508.49,363.101c-4.2-8.101-10.693-14.101-17.592-15.3l-22.2-8.701   c-27.301-10.499-48.001-32.098-57.301-58.799c13.2-3.6,26.1-7.5,38.699-11.7c11.4-3.6,20.7-11.7,26.102-22.5   c5.4-10.8,6.299-22.8,2.399-34.2c-3.6-11.4-11.699-20.7-22.5-26.1c-10.8-5.4-23.099-6.299-34.199-2.401   c-5.101,1.501-10.201,3.301-15,4.501l0.599-6.301c3.6-42.299-10.499-84.598-39.3-116.1c-28.799-31.5-69.6-49.499-112.2-49.499   S172.596,34,143.797,65.5c-28.801,31.501-42.9,73.801-39.3,116.1l0.599,6.301c-4.799-1.199-9.899-2.999-15-4.501   c-11.398-3.898-23.399-2.999-34.199,2.401c-10.801,5.4-18.9,14.7-22.5,26.1c-3.9,11.4-3.001,23.401,2.399,34.2   c5.402,10.8,14.702,18.9,26.102,22.5c12.599,4.501,25.8,8.101,39,11.7c-9.6,26.7-30,48.3-57.001,58.799l-20.4,8.101   c-9.901,2.1-17.128,8.699-21.028,17.701c-4.2,9.6-3.001,20.999,3.3,30.599c4.2,6.301,9.628,12.001,18.329,16.501   c12.599,6.899,28.799,10.499,42.599,13.2c5.7,24.899,18.9,35.999,39.3,32.999c44.7-6.899,49.799-3.6,65.7,8.101   c7.2,5.099,16.199,11.699,31.199,19.799c16.201,6.301,34.2,9.901,52.5,9.901c0.3,0,0.3,0,0.601,0c19.799,0,40.201-4.2,57.6-12.301   c3.6-1.8,7.5-4.499,12.001-7.5c18.6-12.599,41.4-28.499,74.099-19.799c12.001,2.999,22.202,2.1,30-3.001   c11.4-7.2,14.401-20.099,15.901-28.198c23.699-4.801,53.891-11.7,63.791-35.7C513.289,380.8,512.688,370.9,508.49,363.101z"/>
	<path style="fill:#FF9100;" d="M509.389,389.501c-9.901,24-40.092,30.899-63.791,35.7c-1.5,8.099-4.501,20.999-15.901,28.198   c-7.798,5.101-17.999,6-30,3.001c-32.699-8.699-55.499,7.2-74.099,19.799c-4.501,3.001-8.401,5.7-12.001,7.5   c-17.399,8.101-37.8,12.301-57.6,12.301v-480c42.6,0,83.401,17.999,112.2,49.499c28.801,31.501,42.9,73.801,39.3,116.1   l-0.599,6.301c4.799-1.199,9.899-2.999,15-4.501c11.1-3.898,23.399-2.999,34.199,2.401c10.801,5.4,18.9,14.7,22.5,26.1   c3.9,11.4,3.001,23.401-2.399,34.2c-5.402,10.8-14.702,18.9-26.102,22.5c-12.599,4.2-25.499,8.101-38.699,11.7   c9.3,26.7,30,48.3,57.301,58.799l22.2,8.701c6.899,1.199,13.392,7.2,17.592,15.3C512.688,370.9,513.289,380.8,509.389,389.501z"/>
</g>















</svg>
