<?xml version="1.0" encoding="iso-8859-1"?>
<!-- Generator: Adobe Illustrator 21.0.0, SVG Export Plug-In . SVG Version: 6.00 Build 0)  -->
<svg xmlns="http://www.w3.org/2000/svg" xmlns:xlink="http://www.w3.org/1999/xlink" version="1.1" id="Capa_1" x="0px" y="0px" viewBox="0 0 512 512" style="enable-background:new 0 0 512 512;" xml:space="preserve" width="512" height="512">
<g>
	<path style="fill:#FF7CB9;" d="M121.5,135.5C55.201,135.5,0,190.199,0,256.5c0,66.299,55.201,120,121.5,120S241,322.799,241,256.5   C241,190.199,187.799,135.5,121.5,135.5z"/>
	<path style="fill:#25D9F8;" d="M391.5,135.5c-66.299,0-120.5,54.699-120.5,121c0,66.299,54.201,120,120.5,120   S512,322.799,512,256.5C512,190.199,457.799,135.5,391.5,135.5z"/>
	<path style="fill:#FA5E97;" d="M241,256.5c0,66.299-53.201,120-119.5,120v-241C187.799,135.5,241,190.199,241,256.5z"/>
	<path style="fill:#00C0F1;" d="M512,256.5c0,66.299-54.201,120-120.5,120v-241C457.799,135.5,512,190.199,512,256.5z"/>
</g>















</svg>
