<?xml version="1.0" encoding="iso-8859-1"?>
<!-- Generator: Adobe Illustrator 21.0.0, SVG Export Plug-In . SVG Version: 6.00 Build 0)  -->
<svg xmlns="http://www.w3.org/2000/svg" xmlns:xlink="http://www.w3.org/1999/xlink" version="1.1" id="Capa_1" x="0px" y="0px" viewBox="0 0 512 512" style="enable-background:new 0 0 512 512;" xml:space="preserve" width="512" height="512">
<g>
	<path style="fill:#7FE881;" d="M421,106V15c0-8.401-6.599-15-15-15h-90c-5.4,0-10.499,2.999-13.2,7.8L256,95.799L250.6,106H106   c-8.401,0-15,6.599-15,15v105c0,8.399,6.599,15,15,15h71.7L92.8,398.8c-1.199,2.399-1.8,4.799-1.8,7.2v91c0,8.399,6.599,15,15,15   h90c5.4,0,10.499-3.001,13.2-7.8l46.8-88.001L261.4,406H406c8.401,0,15-6.601,15-15V286c0-8.401-6.599-15-15-15h-71.7L419.2,113.2   C420.399,110.799,421,108.399,421,106z"/>
	<path style="fill:#5BC980;" d="M419.2,113.2L334.3,271H406c8.401,0,15,6.599,15,15v105c0,8.399-6.599,15-15,15H261.4l-5.4,10.199   v-320.4L302.8,7.8C305.501,2.999,310.6,0,316,0h90c8.401,0,15,6.599,15,15v91C421,108.399,420.399,110.799,419.2,113.2z"/>
</g>















</svg>
