<?xml version="1.0" encoding="iso-8859-1"?>
<!-- Generator: Adobe Illustrator 21.0.0, SVG Export Plug-In . SVG Version: 6.00 Build 0)  -->
<svg xmlns="http://www.w3.org/2000/svg" xmlns:xlink="http://www.w3.org/1999/xlink" version="1.1" id="Capa_1" x="0px" y="0px" viewBox="0 0 509.401 509.401" style="enable-background:new 0 0 509.401 509.401;" xml:space="preserve" width="512" height="512">
<g>
	<path style="fill:#7FE881;" d="M459.919,236.4c-33.001,8.701-61.8,5.101-83.101-10.199C353.718,209.702,339.919,180,336.618,141   c0-1.5,0.3-39.6,17.701-41.1c4.499,0.3,7.8,1.8,10.499,5.7c9.6,13.5,8.401,45.901,1.5,68.101c-1.199,4.499-0.298,9.6,2.701,13.5   c17.701,22.5,49.799,29.099,90.3,18.6c5.099-1.501,9-5.4,10.499-10.501c6-21.299,9-41.999,9.901-67.5   C478.519,66,446.719,0,360.319,0c-46.201,1.201-82.8,20.101-105.601,54.6c-1.5,2.1-2.999,4.501-4.2,6.901   c-24.899,42.599-26.4,101.699-3.9,159.899c1.201,3.001,2.401,6,3.9,9.001c11.1,25.199,30,54.899,62.701,74.7   c-20.099,35.4-41.4,65.099-62.701,87.599c-58.5-72.001-90-159.6-111-305.4c-0.899-7.5-7.2-12.9-14.7-12.9H44.718   c-8.331,0-15.607,7.406-15,15.899c1.8,27.9,5.7,55.501,13.2,89.401c24.901,117.599,80.4,235.199,134.099,285.899   c44.469,43.747,59.902,43.801,73.5,43.801c59.401-3.9,143.701-136.8,165.601-178.801c23.101-0.601,27.299-1.199,51-6.899   c6.899-1.8,11.699-7.8,11.699-14.7v-57.9C478.818,240.741,468.693,234.061,459.919,236.4z"/>
	<path style="fill:#5BC980;" d="M478.818,251.102v57.9c0,6.899-4.799,12.9-11.699,14.7c-23.701,5.7-27.9,6.299-51,6.899   c-21.899,42.001-106.199,174.901-165.601,178.801v-116.7c21.301-22.5,42.601-52.2,62.701-87.599   c-32.701-19.801-51.601-49.501-62.701-74.7v-168.9c1.201-2.401,2.701-4.801,4.2-6.901c22.8-34.499,59.399-53.399,105.601-54.6   c86.4,0,118.2,66,119.399,127.8c-0.901,25.501-3.9,46.201-9.901,67.5c-1.5,5.101-5.4,9-10.499,10.501   c-40.501,10.499-72.599,3.9-90.3-18.6c-2.999-3.9-3.9-9.001-2.701-13.5c6.901-22.2,8.101-54.6-1.5-68.101   c-2.699-3.9-6-5.4-10.499-5.7c-17.401,1.5-17.701,39.6-17.701,41.1c3.301,39,17.1,68.701,40.201,85.201   c21.301,15.3,50.099,18.9,83.101,10.199C468.656,234.071,478.818,240.688,478.818,251.102z"/>
</g>















</svg>
