<?xml version="1.0" encoding="iso-8859-1"?>
<!-- Generator: Adobe Illustrator 21.0.0, SVG Export Plug-In . SVG Version: 6.00 Build 0)  -->
<svg xmlns="http://www.w3.org/2000/svg" xmlns:xlink="http://www.w3.org/1999/xlink" version="1.1" id="Capa_1" x="0px" y="0px" viewBox="0 0 512 512" style="enable-background:new 0 0 512 512;" xml:space="preserve" width="512" height="512">
<g>
	<path style="fill:#25D9F8;" d="M421,353.503v22.5c0,5.4-2.701,10.199-7.2,12.9l-150,90c-2.401,1.5-5.099,2.1-7.8,2.1   s-5.4-0.601-7.8-2.1c-4.799-3.001-148.2-89.101-150-90c-4.499-2.701-7.2-7.5-7.2-12.9v-22.5l51.899,31.199   c6.901,4.2,15,6.301,23.101,6.301c9,0,17.401-2.701,24.901-7.5l65.099-43.5l65.099,43.5c7.5,4.799,15.901,7.5,24.901,7.5   c8.101,0,16.199-2.1,23.101-6.301L421,353.503z"/>
	<path style="fill:#25D9F8;" d="M433.001,196.003l72.4-47.401c4.199-2.999,6.599-7.8,6.599-12.9s-2.999-9.901-7.2-12.599l-151-90   c-5.099-3.001-11.4-2.701-16.201,0.298L256,88.002l-81.599-54.6c-4.801-2.999-11.102-3.3-16.201-0.298l-151,90   c-4.2,2.699-7.2,7.5-7.2,12.599s2.401,9.901,6.599,12.9l72.4,47.401l-72.4,47.399C2.401,246.403,0,251.202,0,256.303   c0,5.099,2.999,9.899,7.2,12.599l151,90c2.401,1.5,5.099,2.1,7.8,2.1c2.999,0,5.7-0.901,8.401-2.401l81.599-54.6l81.599,54.6   c2.701,1.5,5.402,2.401,8.401,2.401c2.701,0,5.4-0.601,7.8-2.1l151-90c4.2-2.701,7.2-7.5,7.2-12.599   c0-5.101-2.401-9.901-6.599-12.902L433.001,196.003z M256,270.102l-123.6-74.099L256,121.902l123.6,74.101L256,270.102z"/>
	<path style="fill:#00C0F1;" d="M369.101,384.702L421,353.503v22.5c0,5.4-2.701,10.199-7.2,12.9l-150,90   c-2.401,1.5-5.099,2.1-7.8,2.1v-141l65.099,43.5c7.5,4.799,15.901,7.5,24.901,7.5C354.101,391.003,362.199,388.903,369.101,384.702   z"/>
	<path style="fill:#00C0F1;" d="M505.401,243.402c4.199,3.001,6.599,7.8,6.599,12.902c0,5.099-2.999,9.899-7.2,12.599l-151,90   c-2.401,1.5-5.099,2.1-7.8,2.1c-2.999,0-5.7-0.901-8.401-2.401L256,304.002v-33.9l123.6-74.099L256,121.902v-33.9l81.599-54.6   c4.801-2.999,11.102-3.3,16.201-0.298l151,90c4.2,2.699,7.2,7.5,7.2,12.599s-2.401,9.901-6.599,12.9l-72.4,47.401L505.401,243.402z   "/>
</g>















</svg>
