<?xml version="1.0" encoding="iso-8859-1"?>
<!-- Generator: Adobe Illustrator 21.0.0, SVG Export Plug-In . SVG Version: 6.00 Build 0)  -->
<svg xmlns="http://www.w3.org/2000/svg" xmlns:xlink="http://www.w3.org/1999/xlink" version="1.1" id="Capa_1" x="0px" y="0px" viewBox="0 0 511.803 511.803" style="enable-background:new 0 0 511.803 511.803;" xml:space="preserve" width="512" height="512">
<g>
	<path style="fill:#FDBF00;" d="M510.221,353.783l-170.995-315c-2.622-4.863-7.69-7.881-13.198-7.881h-140.01   c-2.596,0-5.048,0.778-7.24,1.996l12.363,100.827L252.72,165.6l108.823,195.302l70.261,22.5l79.918-22.5h0.081   C511.8,358.47,511.422,356.007,510.221,353.783z"/>
	<path style="fill:#FF9100;" d="M339.226,38.782c-2.622-4.863-7.69-7.881-13.198-7.881h-73.005v135.242l108.52,194.758l70.261,22.5   l79.918-22.5h0.081c-0.004-2.432-0.381-4.895-1.582-7.119L339.226,38.782z"/>
	<path style="fill:#737EE6;" d="M144.424,360.902l-47.151,28.125l-17.349,87.975c2.699,2.1,6,3.9,9.6,3.9h332.999   c4.801,0,9.6-2.401,12.301-6.301l74.499-105c1.8-2.699,2.401-5.7,2.401-8.699H144.424z"/>
	<path style="fill:#615AD3;" d="M253.023,480.902h169.499c4.801,0,9.6-2.4,12.301-6.301l74.499-105c1.8-2.699,2.4-5.7,2.4-8.699   H253.023V480.902z"/>
	<path style="fill:#5BC980;" d="M178.778,32.897c-2.699,1.199-4.655,3.404-5.856,5.804l-171.099,315   c-2.701,5.099-2.401,11.1,0.901,15.899l74.499,105c0.601,0.901,1.8,1.5,2.701,2.401l172.8-311.4L178.778,32.897z"/>
</g>















</svg>
