<?xml version="1.0" encoding="iso-8859-1"?>
<!-- Generator: Adobe Illustrator 21.0.0, SVG Export Plug-In . SVG Version: 6.00 Build 0)  -->
<svg xmlns="http://www.w3.org/2000/svg" xmlns:xlink="http://www.w3.org/1999/xlink" version="1.1" id="Capa_1" x="0px" y="0px" viewBox="0 0 512 512" style="enable-background:new 0 0 512 512;" xml:space="preserve" width="512" height="512">
<g>
	<path style="fill:#7FE881;" d="M256,0C115.3,0,0,115.3,0,256s115.3,256,256,256s256-115.3,256-256S396.7,0,256,0z"/>
	<path style="fill:#5BC980;" d="M512,256c0,140.7-115.3,256-256,256V0C396.7,0,512,115.3,512,256z"/>
	<path style="fill:#FFF5F5;" d="M447.4,226.899c-2.701,5.7-8.101,8.701-13.801,8.701c-2.1,0-4.199-0.3-6.299-1.201   C373.299,209.5,315.099,193.9,256,187.599c-53.401-5.4-107.701-2.999-160.499,7.5c-8.101,1.8-15.901-3.6-17.701-11.7   c-1.5-8.099,3.9-16.199,12.001-17.699c54.6-10.8,110.7-13.5,166.199-8.101c63.3,6,125.7,22.8,183.9,49.501   C447.4,210.399,450.7,219.399,447.4,226.899z"/>
	<path style="fill:#FFF5F5;" d="M384.699,363.399c-2.399,5.402-8.099,8.701-13.799,8.701c-2.1,0-4.2-0.601-6-1.5   c-34.501-15.901-71.4-26.7-108.9-31.8c-43.801-6.301-88.5-5.101-131.7,3.6c-8.099,1.5-15.899-3.6-17.699-12.001   c-1.501-8.101,3.9-15.899,11.999-17.401c45-9,91.8-10.499,137.401-4.499c42.001,5.4,82.8,17.1,121.199,34.799   C384.699,346.899,388.001,355.6,384.699,363.399z"/>
	<path style="fill:#FFF5F5;" d="M415.901,295c-2.401,5.7-7.8,8.699-13.5,8.699c-2.1,0-4.2-0.3-6.301-1.199   C351.7,282.1,304.3,268.9,256,263.2c-48.6-5.7-98.401-3.9-146.4,5.7c-8.101,1.5-15.899-3.9-17.401-12.001   c-1.8-8.099,3.6-15.899,11.7-17.699c50.099-9.901,101.4-11.7,152.1-6c52.8,5.7,104.7,19.799,152.701,42.001   C416.201,278.8,419.5,287.5,415.901,295z"/>
	<path style="fill:#EFE2DD;" d="M384.699,363.399c-2.399,5.402-8.099,8.701-13.799,8.701c-2.1,0-4.2-0.601-6-1.5   c-34.501-15.901-71.4-26.7-108.9-31.8v-30.3c42.001,5.4,82.8,17.1,121.199,34.799C384.699,346.899,388.001,355.6,384.699,363.399z"/>
	<path style="fill:#EFE2DD;" d="M415.901,295c-2.401,5.7-7.8,8.699-13.5,8.699c-2.1,0-4.2-0.3-6.301-1.199   C351.7,282.1,304.3,268.9,256,263.2v-30c52.8,5.7,104.7,19.799,152.701,42.001C416.201,278.8,419.5,287.5,415.901,295z"/>
	<path style="fill:#EFE2DD;" d="M447.4,226.899c-2.701,5.7-8.101,8.701-13.801,8.701c-2.1,0-4.199-0.3-6.299-1.201   C373.299,209.5,315.099,193.9,256,187.599v-30c63.3,6,125.7,22.8,183.9,49.501C447.4,210.399,450.7,219.399,447.4,226.899z"/>
</g>















</svg>
