<?xml version="1.0" encoding="iso-8859-1"?>
<!-- Generator: Adobe Illustrator 21.0.0, SVG Export Plug-In . SVG Version: 6.00 Build 0)  -->
<svg xmlns="http://www.w3.org/2000/svg" xmlns:xlink="http://www.w3.org/1999/xlink" version="1.1" id="Capa_1" x="0px" y="0px" viewBox="0 0 512 512" style="enable-background:new 0 0 512 512;" xml:space="preserve" width="512" height="512">
<g>
	<path style="fill:#FF637B;" d="M481,231.301C481,48.3,333.999,0,256.3,0h-0.901C177.1,0.3,31,48.9,31,231.601   c0,182.399,146.699,232.7,224.399,232.7h0.3c20.4,0,33.9-2.1,42.599-4.2c9.3,14.7,29.399,44.399,77.1,50.7   c5.7,0.899,12.001,1.199,18.6,1.199c7.8,0,15-0.601,21.899-1.199l5.402-0.3c8.099-0.601,14.099-7.2,14.099-15v-38.401   c0-6.299-4.2-12.299-10.499-14.099l-3.301-1.199c-14.399-4.501-24-10.801-30-16.201C465.099,394.701,481,303.3,481,231.301z    M332.5,331.7c-22.8-18.9-48.6-30.3-77.1-33.6c-6.301-0.899-12.599-1.199-19.2-1.199h-6c-8.099,0.3-14.7,6.899-14.7,15V354.5   c0,7.2,5.4,13.5,12.301,14.7c9.899,1.8,18.9,6,26.4,12.601c-9.901-0.601-31.201-3.9-50.4-22.8   c-26.102-25.201-39.001-71-39.001-131.901c0-132.299,75.3-142.2,90.601-142.8h1.8c21.899,0,93.6,10.8,93.6,150.901   C350.799,291,342.999,314.001,332.5,331.7z"/>
	<path style="fill:#E63950;" d="M391.599,425.6c6,5.4,15.601,11.7,30,16.201L424.9,443c6.299,1.8,10.499,7.8,10.499,14.099V495.5   c0,7.8-6,14.399-14.099,15l-5.402,0.3h-40.499c-47.701-6.301-67.8-36-77.1-50.7c-8.699,2.1-22.2,4.2-42.599,4.2h-0.3V298.1   c28.5,3.3,54.3,14.7,77.1,33.6c10.499-17.699,18.3-40.699,18.3-96.499c0-140.101-71.7-150.901-93.6-150.901h-1.8V0h0.901   C333.999,0,481,48.3,481,231.301C481,303.3,465.099,394.701,391.599,425.6z"/>
</g>















</svg>
