<?xml version="1.0" encoding="iso-8859-1"?>
<!-- Generator: Adobe Illustrator 21.0.0, SVG Export Plug-In . SVG Version: 6.00 Build 0)  -->
<svg xmlns="http://www.w3.org/2000/svg" xmlns:xlink="http://www.w3.org/1999/xlink" version="1.1" id="Capa_1" x="0px" y="0px" viewBox="0 0 512 512" style="enable-background:new 0 0 512 512;" xml:space="preserve" width="512" height="512">
<g>
	<path style="fill:#7FE881;" d="M512,227.68c0,132.295-127.566,212.748-256,212.79h-0.09c-34.15,0-50.74-5.18-58.72-7.67   c-0.24-0.08-0.5-0.16-0.75-0.24c-6.897,2.693-28.98,18.142-108.79,61.61c-4.948,2.695-10.919,2.37-15.49-0.69   c-4.63-3.09-7.18-8.49-6.6-14.03c7.14-68.71,9.9-94.31,10.96-103.78C58.872,357.928,0,314.641,0,226.81   C0,120.955,96.087,16.083,256,16h0.21C381.95,16,512,95.18,512,227.68z"/>
	<path style="fill:#5BC980;" d="M512,227.68c0,132.295-127.566,212.748-256,212.79V16h0.21C381.95,16,512,95.18,512,227.68z"/>
	<path style="fill:#FFF5F5;" d="M424,229.6c0,73.5-75.3,133.5-168,133.5h-0.3c-81,0-168.3-51-168.3-132.9   c0-94.32,98.69-133.8,168.6-133.8C371.8,97,424,174.7,424,229.6z"/>
	<path style="fill:#EFE2DD;" d="M424,229.6c0,73.5-75.3,133.5-168,133.5V96.4C371.8,97,424,174.7,424,229.6z"/>
</g>















</svg>
