<?xml version="1.0" encoding="iso-8859-1"?>
<!-- Generator: Adobe Illustrator 21.0.0, SVG Export Plug-In . SVG Version: 6.00 Build 0)  -->
<svg xmlns="http://www.w3.org/2000/svg" xmlns:xlink="http://www.w3.org/1999/xlink" version="1.1" id="Capa_1" x="0px" y="0px" viewBox="0 0 512 512" style="enable-background:new 0 0 512 512;" xml:space="preserve" width="512" height="512">
<g>
	<g>
		<path style="fill:#FF637B;" d="M256,0h-3.3C186.4,0,124.9,22.2,79.9,62.699C28.299,108.9,0,175.499,0,255    c0,78.3,28.299,146.3,80.2,193.1C126.099,489.2,187.899,512,253.9,512h2.1c123.3-0.901,256-85.401,256-265.701    C512,86.1,383.199,1.5,256,0z M256.3,458.299H256c-0.601,0-0.601,0-0.601,0C183.701,458.299,153.1,393.9,153.1,247.2    c0-84,10.499-195.601,101.999-195.601h1.501C348.4,51.599,358.9,163.2,358.9,247.2C358.9,393.9,328.299,458.299,256.3,458.299z"/>
	</g>
	<path style="fill:#E63950;" d="M512,246.299c0,180.3-132.701,264.8-256,265.701v-53.701h0.3   c71.999,0,102.599-64.399,102.599-211.099c0-84-10.499-195.601-102.299-195.601H256V0C383.199,1.5,512,86.1,512,246.299z"/>
</g>















</svg>
