<?xml version="1.0" encoding="iso-8859-1"?>
<!-- Generator: Adobe Illustrator 21.0.0, SVG Export Plug-In . SVG Version: 6.00 Build 0)  -->
<svg xmlns="http://www.w3.org/2000/svg" xmlns:xlink="http://www.w3.org/1999/xlink" version="1.1" id="Capa_1" x="0px" y="0px" viewBox="0 0 512 512" style="enable-background:new 0 0 512 512;" xml:space="preserve" width="512" height="512">
<g>
	<path style="fill:#47568C;" d="M295.302,389.799L256,512H15c-8.401,0-15-6.601-15-15V256l128.5-43.2l7.5,2.401L256,256   L295.302,389.799z"/>
	<polygon style="fill:#2C3B73;" points="295.302,389.799 256,512 136,512 136,215.2 256,256  "/>
	<path style="fill:#737EE6;" d="M512,15v241l-136,41.999l-2.402,0.601L256,256l-40.499-123.001L256,0h241   C505.401,0,512,6.599,512,15z"/>
	<path style="fill:#FFF5F5;" d="M256,0v256H0V15C0,6.599,6.599,0,15,0H256z"/>
	<path style="fill:#615AD3;" d="M512,15v241l-136,41.999V0h121C505.401,0,512,6.599,512,15z"/>
	<path style="fill:#FFF5F5;" d="M512,256v241c0,8.399-6.599,15-15,15H256V256H512z"/>
	<path style="fill:#EFE2DD;" d="M512,256v241c0,8.399-6.599,15-15,15H376V256H512z"/>
	<rect x="136" style="fill:#EFE2DD;" width="120" height="256"/>
</g>















</svg>
