<?xml version="1.0" encoding="iso-8859-1"?>
<!-- Generator: Adobe Illustrator 21.0.0, SVG Export Plug-In . SVG Version: 6.00 Build 0)  -->
<svg xmlns="http://www.w3.org/2000/svg" xmlns:xlink="http://www.w3.org/1999/xlink" version="1.1" id="Capa_1" x="0px" y="0px" viewBox="0 0 512 512" style="enable-background:new 0 0 512 512;" xml:space="preserve" width="512" height="512">
<g>
	<path style="fill:#7FE881;" d="M271,351.299v107.401l34.501-34.499C302.8,418.5,301,411.899,301,405c0-24.901,20.099-45,45-45   s45,20.099,45,45c0,24.899-20.099,45-45,45c-6.899,0-13.5-1.8-19.2-4.501l-60.3,62C263.8,510.5,259.9,512,256,512   c-8.401,0-15-6.601-15-15v-55.701l-55.8-55.8C179.5,388.2,172.899,390,166,390c-24.901,0-45-20.101-45-45c0-24.901,20.099-45,45-45   s45,20.099,45,45c0,6.899-1.8,13.5-4.501,19.2L241,398.699V291.299l-55.8-55.8C179.5,238.2,172.899,240,166,240   c-24.901,0-45-20.101-45-45c0-24.901,20.099-45,45-45s45,20.099,45,45c0,6.899-1.8,13.5-4.501,19.2L241,248.699V141.299l-55.8-55.8   C179.5,88.2,172.899,90,166,90c-24.901,0-45-20.101-45-45c0-24.901,20.099-45,45-45s45,20.099,45,45c0,6.899-1.8,13.5-4.501,19.2   L241,98.699V15c0-8.401,6.599-15,15-15s15,6.599,15,15v143.699l34.501-34.499C302.8,118.5,301,111.899,301,105   c0-24.901,20.099-45,45-45s45,20.099,45,45c0,24.899-20.099,45-45,45c-6.899,0-13.5-1.8-19.2-4.501l-55.8,55.8v107.401   l34.501-34.499C302.8,268.5,301,261.899,301,255c0-24.901,20.099-45,45-45s45,20.099,45,45c0,24.899-20.099,45-45,45   c-6.899,0-13.5-1.8-19.2-4.501L271,351.299z"/>
	<path style="fill:#5BC980;" d="M271,351.299v107.401l34.501-34.499C302.8,418.5,301,411.899,301,405c0-24.901,20.099-45,45-45   s45,20.099,45,45c0,24.899-20.099,45-45,45c-6.899,0-13.5-1.8-19.2-4.501l-60.3,62C263.8,510.5,259.9,512,256,512V0   c8.401,0,15,6.599,15,15v143.699l34.501-34.499C302.8,118.5,301,111.899,301,105c0-24.901,20.099-45,45-45s45,20.099,45,45   c0,24.899-20.099,45-45,45c-6.899,0-13.5-1.8-19.2-4.501l-55.8,55.8v107.401l34.501-34.499C302.8,268.5,301,261.899,301,255   c0-24.901,20.099-45,45-45s45,20.099,45,45c0,24.899-20.099,45-45,45c-6.899,0-13.5-1.8-19.2-4.501L271,351.299z"/>
</g>















</svg>
