<?xml version="1.0" encoding="iso-8859-1"?>
<!-- Generator: Adobe Illustrator 21.0.0, SVG Export Plug-In . SVG Version: 6.00 Build 0)  -->
<svg xmlns="http://www.w3.org/2000/svg" xmlns:xlink="http://www.w3.org/1999/xlink" version="1.1" id="Capa_1" x="0px" y="0px" viewBox="0 0 512 512" style="enable-background:new 0 0 512 512;" xml:space="preserve" width="512" height="512">
<g>
	<path style="fill:#FF9100;" d="M477.1,4.799C474.101,1.8,470.2,0,466,0H46c-4.2,0-8.101,1.8-11.1,4.799   c-2.701,3.001-4.2,7.2-3.9,11.4l30,420c0.601,6,4.501,11.1,10.201,12.9l180,62C252.7,511.7,254.5,512,256,512s3.3-0.3,4.799-0.901   l180-62c5.7-1.8,9.6-6.899,10.201-12.9l30-420C481.3,11.999,479.801,7.8,477.1,4.799z"/>
	<path style="fill:#FF641A;" d="M481,16.199l-30,420c-0.601,6-4.501,11.1-10.201,12.9l-180,62C259.3,511.7,257.5,512,256,512V0h210   c4.2,0,8.101,1.8,11.1,4.799C479.801,7.8,481.3,11.999,481,16.199z"/>
	<path style="fill:#FFF5F5;" d="M412.599,64.799C409.6,61.8,405.7,60,401.499,60H110.501c-4.2,0-8.101,1.8-11.1,4.799   c-2.701,3.001-4.2,7.2-3.9,11.4l13.799,195c0.601,7.8,7.2,13.801,15,13.801h186.901l-3.301,50.4L256,352.5l-51.899-17.1l-0.3-6.601   C203.2,321,196.601,315,188.8,315h-60c-4.2,0-8.101,1.8-11.1,4.799c-2.701,3.001-4.2,7.2-3.9,11.1l4.2,60.601   c0.599,6.301,4.499,11.4,10.199,13.2l123.001,41.1c1.5,0.601,3.3,0.901,4.799,0.901s3.3-0.3,4.799-0.901L383.8,404.7   c5.7-1.8,9.6-6.899,10.199-12.9l12.902-180.601c0.298-4.2-1.201-8.399-3.9-11.4C400,196.8,396.099,195,391.901,195H194.5l-3.3-45   h206.1c7.798,0,14.399-6,15-13.801l4.199-60C416.8,71.999,415.3,67.8,412.599,64.799z"/>
	<path style="fill:#EFE2DD;" d="M406.901,211.199L393.999,391.8c-0.599,6-4.499,11.1-10.199,12.9l-123.001,41.1   c-1.5,0.601-3.3,0.901-4.799,0.901v-94.2l51.899-17.1l3.301-50.4H256v-90h135.901c4.199,0,8.099,1.8,11.1,4.799   C405.7,202.8,407.199,206.999,406.901,211.199z"/>
	<path style="fill:#EFE2DD;" d="M416.499,76.199l-4.199,60c-0.601,7.8-7.202,13.801-15,13.801H256V60h145.499   c4.2,0,8.101,1.8,11.1,4.799C415.3,67.8,416.8,71.999,416.499,76.199z"/>
</g>















</svg>
