<?xml version="1.0" encoding="iso-8859-1"?>
<!-- Generator: Adobe Illustrator 21.0.0, SVG Export Plug-In . SVG Version: 6.00 Build 0)  -->
<svg xmlns="http://www.w3.org/2000/svg" xmlns:xlink="http://www.w3.org/1999/xlink" version="1.1" id="Capa_1" x="0px" y="0px" viewBox="0 0 511.099 511.099" style="enable-background:new 0 0 511.099 511.099;" xml:space="preserve" width="512" height="512">
<g>
	<path style="fill:#FF637B;" d="M297.786,126.499c-8.099-1.8-15-2.699-21.899-3.6c-6.899-0.599-13.801,0-20.4,1.8   c-9.3,2.1-17.999,6.601-25.201,13.2c-12.599,11.7-19.799,27.9-19.799,45c0,27.601,18.3,50.7,45,57.601c2.999,1.199,6,1.8,9.3,2.098   c5.7,0.601,10.8,1.8,16.199,3.9c33.6,12.301,53.701,45.601,48.9,81.301c-5.999,41.1-40.499,62.1-74.399,62.999   c-2.701,0-5.099,0-7.8-0.298c-30.899-2.1-67.2-22.8-67.2-73.5V60c0-33.001-27.001-60-60-60s-60,26.999-60,60v257   c0,125.099,93.6,188.099,180.901,193.799c4.499,0.3,9,0.3,13.499,0.3c0.3,0,0.3,0,0.601,0c85.201-0.3,178.2-51.299,193.5-168.6   C461.887,241.399,396.787,148.7,297.786,126.499z"/>
	<path style="fill:#E63950;" d="M448.987,342.499c-15.3,117.301-108.3,168.3-193.5,168.6v-120.3   c33.9-0.899,68.401-21.899,74.399-62.999c4.801-35.7-15.3-69-48.9-81.301c-5.4-2.1-10.499-3.3-16.199-3.9   c-3.3-0.298-6.301-0.899-9.3-2.098V124.699c6.599-1.8,13.5-2.399,20.4-1.8c6.899,0.901,13.801,1.8,21.899,3.6   C396.787,148.7,461.887,241.399,448.987,342.499z"/>
</g>















</svg>
