<?xml version="1.0" encoding="iso-8859-1"?>
<!-- Generator: Adobe Illustrator 21.0.0, SVG Export Plug-In . SVG Version: 6.00 Build 0)  -->
<svg xmlns="http://www.w3.org/2000/svg" xmlns:xlink="http://www.w3.org/1999/xlink" version="1.1" id="Capa_1" x="0px" y="0px" viewBox="0 0 512 512" style="enable-background:new 0 0 512 512;" xml:space="preserve" width="512" height="512">
<g>
	<path style="fill:#FF9100;" d="M476.499,296.499C479.5,307.599,481,319.3,481,331c0,95.099-100.8,172.5-225,172.5   S31,426.099,31,331c0-11.7,1.5-23.401,4.501-34.501C14.2,282.999,0,259.6,0,233.5c0-41.4,34.6-75,76-75   c22.8,0,43.5,10.8,57.599,27.9c32.1-15.901,69.6-25.501,110.101-27.301L256,99.399L271.3,25c0.899-4.2,3.6-7.8,7.2-9.901   c3.9-2.1,8.401-2.699,12.599-1.199l77.1,26.999C378.1,21.7,397.899,8.5,421,8.5c32.999,0,60,26.999,60,60c0,32.999-27.001,60-60,60   c-32.401,0-58.801-26.1-59.7-58.2l-64.2-22.5l-22.8,111.599c38.101,2.401,73.5,11.7,104.101,27.001   C392.5,169.3,413.2,158.5,436,158.5c41.4,0,76,33.6,76,75C512,259.6,497.8,282.999,476.499,296.499z"/>
	<path style="fill:#FF641A;" d="M476.499,296.499C479.5,307.599,481,319.3,481,331c0,95.099-100.8,172.5-225,172.5V99.399L271.3,25   c0.899-4.2,3.6-7.8,7.2-9.901c3.9-2.1,8.401-2.699,12.599-1.199l77.1,26.999C378.1,21.7,397.899,8.5,421,8.5   c32.999,0,60,26.999,60,60c0,32.999-27.001,60-60,60c-32.401,0-58.801-26.1-59.7-58.2l-64.2-22.5l-22.8,111.599   c38.101,2.401,73.5,11.7,104.101,27.001C392.5,169.3,413.2,158.5,436,158.5c41.4,0,76,33.6,76,75   C512,259.6,497.8,282.999,476.499,296.499z"/>
	<path style="fill:#FFF5F5;" d="M352.301,408.1c-27.9,13.499-61.501,20.4-96.301,20.4s-68.401-6.901-96.301-20.4   c-7.5-3.6-10.8-12.601-7.2-20.101c3.6-7.2,12.599-10.499,19.801-6.899c24.3,11.4,54,17.1,83.699,17.1s59.399-5.7,83.699-17.1   c7.5-3.6,16.201-0.601,19.801,6.899S359.801,404.5,352.301,408.1z"/>
	<g>
		<path style="fill:#FFF5F5;" d="M166,338.5c-24.814,0-45-20.186-45-45s20.186-45,45-45s45,20.186,45,45S190.814,338.5,166,338.5z"/>
	</g>
	<g>
		<path style="fill:#EFE2DD;" d="M346,338.5c-24.814,0-45-20.186-45-45s20.186-45,45-45s45,20.186,45,45S370.814,338.5,346,338.5z"/>
	</g>
	<path style="fill:#EFE2DD;" d="M352.301,408.1c-27.9,13.499-61.501,20.4-96.301,20.4v-30.3c29.7,0,59.399-5.7,83.699-17.1   c7.5-3.6,16.201-0.601,19.801,6.899S359.801,404.5,352.301,408.1z"/>
</g>















</svg>
