<?xml version="1.0" encoding="iso-8859-1"?>
<!-- Generator: Adobe Illustrator 21.0.0, SVG Export Plug-In . SVG Version: 6.00 Build 0)  -->
<svg xmlns="http://www.w3.org/2000/svg" xmlns:xlink="http://www.w3.org/1999/xlink" version="1.1" id="Capa_1" x="0px" y="0px" viewBox="0 0 511.829 511.829" style="enable-background:new 0 0 511.829 511.829;" xml:space="preserve" width="512" height="512">
<g>
	<path style="fill:#FF9100;" d="M497.982,275.439c-9.302-20.402-23.401-39.001-42.001-54.001c-41.4-33.6-67.403-27.8-81.201-17.599   c-24.899,18.3-26.697,65.4-5.098,120c1.201,2.701,2.098,5.4,3.3,7.8c14.099,32.1,33.3,57.299,58.202,77.401   c13.198,9.899,29.099,11.398,39.895,8.099c12.902-3.3,24.201-12.101,29.302-23.799C516.878,354.938,515.08,312.038,497.982,275.439   z"/>
	<path style="fill:#FDBF00;" d="M267.081,178.339c-3.3-6.901-6.899-13.5-11.1-19.801c-44.099-73.801-111-100.499-162.001-100.499   c-67.2,0-86.998,34.499-91.499,49.499c-9.6,31.501,9.299,67.8,45.6,92.701c28.5,19.2,60.3,26.1,91.8,26.1   c44.099,0,87.001-13.801,116.1-25.8c1.199-0.601,2.401-0.901,3.6-1.5c3.9-1.501,6.601-4.801,8.101-8.701   S268.881,181.939,267.081,178.339z"/>
	<path style="fill:#FF9100;" d="M429.382,442.038c-12.001-6-19.2-11.4-27.902-18.9c-8.998-7.5-17.699-17.701-24.899-27.299   c-12.301-15.3-22.5-32.401-30.901-51.901c-1.501-2.999-2.699-6-3.9-9c-11.4-28.801-16.798-55.8-16.798-79.501   c0-15.899,2.399-29.099,4.797-35.999v-0.3c1.501-5.4,0-11.1-3.896-15c-4.204-4.2-10.203-5.4-15.601-3.6   c-22.2,7.8-40.503,19.499-54.302,34.199c-26.4,27.301-36.899,66-29.399,110.402c2.699,15.298,7.5,30.899,14.7,45.599   c3.9,9.3,9.001,18.301,14.7,27.001c25.499,38.699,64.501,68.101,107.402,68.101c21.899,0,43.799-6,65.398-18.001   c4.797-2.699,7.8-8.101,7.5-13.799C436.281,449.238,433.579,444.737,429.382,442.038z"/>
	<path style="fill:#FF9100;" d="M364.281,30.437c-16.8-8.699-39-4.499-57.599,11.4c-33.9,29.101-42.001,76.201-21.899,129.6   c1.5,3.9,4.499,6.901,8.399,8.701c4.345,1.445,8.358,1.087,12.301-0.601c48.3-23.101,77.098-57.301,80.999-96   C390.08,47.838,372.081,34.638,364.281,30.437z"/>
	<path style="fill:#FF9100;" d="M253.579,455.238c-14.7-17.1-26.096-35.099-34.497-54.6c-8.401-19.2-14.099-39.901-16.802-62.1   c-0.504-5.539-5.187-11.359-11.997-12.599c-6.75-1.227-12.274,1.467-15.901,6.899c-16.613,27.884-31.412,59.359-43.198,90.601   c-2.102,5.7-1.802,11.4,0.597,16.5c2.098,5.099,6.603,9,12.301,11.4c15.3,6,30.901,11.4,46.802,15.899   c15.597,4.801,31.798,8.701,48.296,12.301c3.002,0,5.237,1.129,10.503-1.5c2.098-1.5,3.896-3.301,5.398-5.4   c0.893-0.893,2.102-6.36,2.102-7.8C257.182,459.253,255.08,458.241,253.579,455.238z"/>
	<path style="fill:#FF641A;" d="M257.182,464.838c0,1.441-1.209,6.907-2.102,7.8c-1.501,2.098-3.3,3.9-5.398,5.4   c-5.251,2.621-7.444,1.5-10.503,1.5c-16.498-3.6-32.699-7.5-48.296-12.301c-15.901-4.499-31.501-9.899-46.802-15.899   c-5.698-2.401-10.203-6.301-12.301-11.4l87.301-39.3c8.401,19.501,19.797,37.5,34.497,54.6   C255.083,458.247,257.182,459.252,257.182,464.838z"/>
	<path style="fill:#FF641A;" d="M429.382,442.038c4.197,2.699,6.899,7.2,6.899,12.001c0.3,5.698-2.703,11.1-7.5,13.799   c-21.599,12.001-43.499,18.001-65.398,18.001c-42.902,0-81.903-29.401-107.402-68.101c-5.698-8.699-10.8-17.701-14.7-27.001   l104.399-46.8c8.401,19.501,18.6,36.601,30.901,51.901c7.2,9.598,15.901,19.799,24.899,27.299   C410.181,430.638,417.381,436.038,429.382,442.038z"/>
	<path style="fill:#FF641A;" d="M500.381,393.338c-5.101,11.699-16.4,20.5-29.302,23.799c-10.796,3.3-26.697,1.8-39.895-8.099   c-24.902-20.101-44.103-45.3-58.202-77.401l125-56.2C515.08,312.038,516.878,354.938,500.381,393.338z"/>
</g>















</svg>
