<?xml version="1.0" encoding="iso-8859-1"?>
<!-- Generator: Adobe Illustrator 21.0.0, SVG Export Plug-In . SVG Version: 6.00 Build 0)  -->
<svg xmlns="http://www.w3.org/2000/svg" xmlns:xlink="http://www.w3.org/1999/xlink" version="1.1" id="Capa_1" x="0px" y="0px" viewBox="0 0 512 512" style="enable-background:new 0 0 512 512;" xml:space="preserve" width="512" height="512">
<g>
	<path style="fill:#7FE881;" d="M256,0C131.8,0,31,100.8,31,225c0,119.099,92.999,216.899,210,224.399V497c0,8.399,6.599,15,15,15   c121.199,0,225-158.601,225-287C481,100.8,380.2,0,256,0z"/>
	<path style="fill:#5BC980;" d="M481,225c0,128.399-103.801,287-225,287V0C380.2,0,481,100.8,481,225z"/>
	<path style="fill:#EFE2DD;" d="M316,330c-8.291,0-15-6.709-15-15v-45h-15c-8.291,0-15-6.709-15-15v-90c0-8.291,6.709-15,15-15h90   c8.291,0,15,6.709,15,15v90C391,296.353,357.353,330,316,330z"/>
	<path style="fill:#FFF5F5;" d="M166,330c-8.291,0-15-6.709-15-15v-45h-15c-8.291,0-15-6.709-15-15v-90c0-8.291,6.709-15,15-15h90   c8.291,0,15,6.709,15,15v90C241,296.353,207.353,330,166,330z"/>
</g>















</svg>
