<?xml version="1.0" encoding="iso-8859-1"?>
<!-- Generator: Adobe Illustrator 21.0.0, SVG Export Plug-In . SVG Version: 6.00 Build 0)  -->
<svg xmlns="http://www.w3.org/2000/svg" xmlns:xlink="http://www.w3.org/1999/xlink" version="1.1" id="Capa_1" x="0px" y="0px" viewBox="0 0 512 512" style="enable-background:new 0 0 512 512;" xml:space="preserve" width="512" height="512">
<g>
	<path style="fill:#47568C;" d="M208.643,217.899l-75-120c-2.699-4.2-7.5-6.899-12.599-6.899h-105c-5.4,0-10.499,2.999-13.2,7.8   c-2.701,4.799-2.401,10.499,0.601,15.298L73.343,226L3.444,337.899c-3.001,4.801-3.301,10.499-0.601,15.3   c2.701,4.799,7.8,7.8,13.2,7.8h105c5.099,0,9.901-2.701,12.599-6.901l75-120C211.944,228.999,211.944,222.999,208.643,217.899z"/>
	<path style="fill:#7FE881;" d="M509.243,7.5c-2.701-4.501-7.8-7.5-13.2-7.5h-105c-5.4,0-10.201,2.699-12.9,7.2l-180,301   c-2.701,4.799-2.701,10.8,0,15.601l107.999,181c2.701,4.499,7.5,7.2,12.9,7.2h105c5.402,0,10.501-3.001,13.2-7.5   c2.401-4.801,2.401-10.501-0.298-15.3L333.444,316L508.943,22.8C511.644,17.999,511.644,12.299,509.243,7.5z"/>
</g>















</svg>
