<?xml version="1.0" encoding="iso-8859-1"?>
<!-- Generator: Adobe Illustrator 21.0.0, SVG Export Plug-In . SVG Version: 6.00 Build 0)  -->
<svg xmlns="http://www.w3.org/2000/svg" xmlns:xlink="http://www.w3.org/1999/xlink" version="1.1" id="Capa_1" x="0px" y="0px" viewBox="0 0 512 512" style="enable-background:new 0 0 512 512;" xml:space="preserve" width="512" height="512">
<g>
	<path style="fill:#FF7CB9;" d="M437,0H75C33.6,0,0,33.6,0,75v362c0,41.4,33.6,75,75,75h362c41.4,0,75-33.6,75-75V75   C512,33.6,478.4,0,437,0z"/>
	<path style="fill:#FF637B;" d="M512,75v362c0,41.4-33.6,75-75,75H256V0h181C478.4,0,512,33.6,512,75z"/>
	<path style="fill:#EFE2DD;" d="M421,120c-16.538,0-30-13.462-30-30s13.462-30,30-30s30,13.462,30,30S437.538,120,421,120z"/>
	<path style="fill:#FFF5F5;" d="M256,120c-74.399,0-135,60.599-135,135c0,74.399,60.601,135,135,135s135-60.601,135-135   C391,180.599,330.399,120,256,120z M256,360c-57.9,0-105-47.1-105-105s47.1-105,105-105s105,47.1,105,105S313.9,360,256,360z"/>
	<path style="fill:#EFE2DD;" d="M391,255c0,74.399-60.601,135-135,135v-30c57.9,0,105-47.1,105-105s-47.1-105-105-105v-30   C330.399,120,391,180.599,391,255z"/>
</g>















</svg>
