<?xml version="1.0" encoding="iso-8859-1"?>
<!-- Generator: Adobe Illustrator 21.0.0, SVG Export Plug-In . SVG Version: 6.00 Build 0)  -->
<svg xmlns="http://www.w3.org/2000/svg" xmlns:xlink="http://www.w3.org/1999/xlink" version="1.1" id="Capa_1" x="0px" y="0px" viewBox="0 0 512 512" style="enable-background:new 0 0 512 512;" xml:space="preserve" width="512" height="512">
<g>
	<path style="fill:#FF637B;" d="M437,61H75C33.6,61,0,94.6,0,136v240c0,41.4,33.6,75,75,75h362c41.4,0,75-33.6,75-75V136   C512,94.6,478.4,61,437,61z"/>
	<path style="fill:#E63950;" d="M512,136v240c0,41.4-33.6,75-75,75H256V61h181C478.4,61,512,94.6,512,136z"/>
	<path style="fill:#FFF5F5;" d="M338.199,242.8L256,197.199l-52.8-29.399c-4.499-2.401-10.199-2.401-14.7,0.3   c-4.799,2.699-7.5,7.5-7.5,12.9v152.399c0,5.402,2.999,10.501,7.5,13.2c4.816,2.41,10.179,2.412,15,0L256,316.3l82.5-47.401   c4.799-2.701,7.5-7.5,7.5-12.9S343.001,245.499,338.199,242.8z"/>
	<path style="fill:#EFE2DD;" d="M346,256c0,5.4-2.701,10.199-7.5,12.9L256,316.3V197.199l82.2,45.601   C343.001,245.499,346,250.6,346,256z"/>
</g>















</svg>
